<svg xmlns="http://www.w3.org/2000/svg" xmlns:xlink="http://www.w3.org/1999/xlink" viewBox="0 0 667 455"><defs><style>.a{fill:#fff;}.b{clip-path:url(#a);}.c{fill:url(#b);}.d{clip-path:url(#c);}.e{fill:url(#d);}.f{fill:#dd70b2;}.g{fill:#ca52a3;}.h{fill:#b43992;}.i{fill:#98217f;}.j{fill:#e1c235;}.k{fill:#c59831;}.l{fill:#771652;}.m{fill:#971061;}.n{fill:none;}.o{fill:#f0f1f1;}.p{fill:#d2d3d3;}.q{opacity:0.21;}.r{fill:#30213a;}</style><clipPath id="a"><rect class="a" width="667" height="455" transform="translate(0 4945)"/></clipPath><linearGradient id="b" x1="0.448" y1="0.783" x2="0.613" y2="-0.33" gradientUnits="objectBoundingBox"><stop offset="0" stop-color="#1d1b4e"/><stop offset="0.999" stop-color="#d36a7e"/></linearGradient><clipPath id="c"><path d="M515.9,25.23c-34.345-4.5-73.007-6.381-99.845,15.765-23.272,19.331-31.342,52.363-54.427,71.693-25.337,21.4-61.746,21.02-94.778,24.586-36.41,3.941-75.447,16.14-95.153,47.108-12.95,20.457-15.765,46.732-32.469,64.186C112.206,276.72,65.1,267.148,29.064,281.975c-38.662,15.953-60.808,64-47.671,103.787,7.695,23.085,24.961,41.853,43.542,57.43A315.936,315.936,0,0,0,153.12,508.129c59.119,14.451,121.053,11.448,181.861,10.322,73.946-1.126,148.454.938,221.086-12.95,37.161-7.132,74.321-18.58,104.725-41.1,40.726-30.029,65.5-76.573,86.332-122.555,8.258-18.393,16.328-37.724,15.953-57.805-.375-36.41-26.838-66.438-44.1-98.532a213.406,213.406,0,0,1-23.835-75.635c-1.877-15.2,2.815-37.724-11.073-48.234-18.393-14.076-56.679-16.328-79.013-21.02C575.586,34.239,545.745,29.171,515.9,25.23Z" transform="translate(22.407 -22.383)"/></clipPath><linearGradient id="d" x1="0.46" y1="0.769" x2="0.622" y2="-0.322" xlink:href="#b"/></defs><g class="b" transform="translate(0 -4945)"><g transform="translate(0.32 4945.204)"><path class="c" d="M107.57,285.914c36.034-14.827,83.142-5.255,110.168-33.407,16.7-17.454,19.706-43.729,32.469-64.186,19.519-30.967,58.744-43.166,95.153-47.108,33.032-3.566,69.441-3.378,94.778-24.586,23.085-19.519,31.342-52.55,54.427-71.693,26.651-22.146,65.312-20.457,99.845-15.765,30.029,3.941,59.682,9.009,89.335,15.2,10.135,2.252,23.648,3.754,37.16,6.381V455.576H113.764c-3.566-2.627-6.944-5.443-10.322-8.258-18.58-15.765-35.847-34.345-43.542-57.43C46.762,349.913,68.908,301.867,107.57,285.914Z" transform="translate(22.433 22.545)"/><g transform="translate(105.183 41.547)"><g class="d"><rect class="e" width="889.6" height="530.382" transform="translate(-224.981 -101.128)"/></g></g><path class="f" d="M16.912,33.8A16.891,16.891,0,1,0,.021,16.912,16.891,16.891,0,0,0,16.912,33.8Z" transform="translate(765.298 36.61) rotate(-175.063)"/><path class="f" d="M409.3,230.26a23.366,23.366,0,1,0,23.272-23.46A23.309,23.309,0,0,0,409.3,230.26Z" transform="translate(-375.577 180.859)"/><path class="f" d="M8.728,436.777a79,79,0,0,1,70.38-86.708,77.324,77.324,0,0,1,16.14,0,37.945,37.945,0,0,1,67.189-14.264,57.059,57.059,0,0,1,39.6,15.2,21.99,21.99,0,0,1,37.724,10.7,30.408,30.408,0,0,1,18.392-8.821,30.768,30.768,0,0,1,20.457,5.067,37.968,37.968,0,0,1,66.063,3.378,49.192,49.192,0,0,1,60.057-2.815,21.845,21.845,0,0,1,40.914.375,38.147,38.147,0,0,1,24.586-12.95,38.7,38.7,0,0,1,18.58,2.628A37.912,37.912,0,0,1,533.667,326.8a79.014,79.014,0,0,1,41.289-36.222,24.12,24.12,0,0,1-2.815-9.009A24.86,24.86,0,0,1,586.03,256.6,36.673,36.673,0,0,1,572.7,231.456a37.85,37.85,0,0,1,15.014-34.345,22.026,22.026,0,0,1-20.269-19.519,21.592,21.592,0,0,1,9.384-20.269,21.842,21.842,0,0,1,11.824-38.474,23.686,23.686,0,0,1,7.319.563,39.717,39.717,0,0,1-4.317-14.076,38.575,38.575,0,0,1,25.524-40.351,29.516,29.516,0,0,1-.751-4.317,30.571,30.571,0,0,1,60.808-6.381,26.934,26.934,0,0,1-.751,10.322L769.768,90.7,729.041,469.621,80.234,530.241l2.627-22.709A79.135,79.135,0,0,1,8.728,436.777Z" transform="translate(63.282 23.139)"/><g transform="translate(501.665 242.012)"><path class="g" d="M0,385.134H21.584V0H0Z" transform="matrix(-0.74, 0.673, -0.673, -0.74, 288.278, 298.678)"/><path class="g" d="M0,385.134H9.76V0H0Z" transform="matrix(-0.74, 0.673, -0.673, -0.74, 266.403, 318.642)"/><path class="g" d="M0,385.134H9.76V0H0Z" transform="matrix(-0.74, 0.673, -0.673, -0.74, 301.255, 286.802)"/></g><path class="g" d="M6.9,432.4a33.706,33.706,0,0,1,32.656-35.1,35.153,35.153,0,0,1,20.645,6.006,65.291,65.291,0,0,1,42.04-17.079,66.549,66.549,0,0,1,54.427,25.149A65.768,65.768,0,0,1,194.4,397.866c2.252,0,4.692,0,6.944.188a19.51,19.51,0,0,1,35.284-8.633A33.719,33.719,0,0,1,259.9,378.91a33.31,33.31,0,0,1,21.583,6.757,33.3,33.3,0,0,1,21.02-8.258,34.04,34.04,0,0,1,34.908,30.216l2.252-1.126a34.775,34.775,0,0,1,24.586-.751,23.436,23.436,0,0,1,22.522-21.02,24.369,24.369,0,0,1,16.891,6.193,34.485,34.485,0,0,1,20.269-7.695A33.863,33.863,0,0,1,456.209,403.5a38.762,38.762,0,0,1,16.14-4.129,37.264,37.264,0,0,1,12.95,1.689,55.581,55.581,0,0,1,50.861-38.662,53.911,53.911,0,0,1,24.586,4.88,18.63,18.63,0,0,1,17.83-17.079,16.143,16.143,0,0,1,3,.188,25.026,25.026,0,0,1,21.583-14.076,31.065,31.065,0,0,1,6.006.563,34.161,34.161,0,0,1,18.768-26.838,34.008,34.008,0,0,1,3.19-29.841,13.376,13.376,0,0,1-4.317-9.384,13.587,13.587,0,0,1,9.759-13.513,23.387,23.387,0,0,1,4.5-35.847,34.377,34.377,0,0,1-8.258-21.02,33.843,33.843,0,0,1,17.83-31.155,18.731,18.731,0,0,1-4.88-12.2A19.641,19.641,0,0,1,664.533,136.8h1.314a42.515,42.515,0,0,1-1.689-9.759,38.115,38.115,0,0,1,23.272-36.6,78.252,78.252,0,0,1-1.5-11.824,66.121,66.121,0,0,1,63.811-68.5c36.222-1.314,66.814,27.4,68.128,63.811a66.121,66.121,0,0,1-63.811,68.5,62.547,62.547,0,0,1-10.322-.375l19.143,238.916L597.906,543.317,49.32,531.681,36.745,464.867A33.86,33.86,0,0,1,6.9,432.4Z" transform="translate(17.81 8.374)"/><path class="h" d="M10.039,433.839a68.044,68.044,0,0,1,59.119-76.01,70.634,70.634,0,0,1,14.076-.375A32.766,32.766,0,0,1,111.2,331.742a32.436,32.436,0,0,1,29.653,12.2,50.725,50.725,0,0,1,34.533,12.387,19.9,19.9,0,0,1,11.824-6.381,18.849,18.849,0,0,1,20.832,14.827,26.986,26.986,0,0,1,15.765-7.883,26.138,26.138,0,0,1,17.642,4.129,32.6,32.6,0,0,1,56.867,1.689,43.082,43.082,0,0,1,22.9-10.51,41.971,41.971,0,0,1,28.715,6.756,18.83,18.83,0,0,1,35.284-.563,31.389,31.389,0,0,1,21.02-11.448,30.4,30.4,0,0,1,15.953,2.064,32.609,32.609,0,0,1,26.275-20.269,32,32,0,0,1,12.011.751A68.583,68.583,0,0,1,495.378,297.4a20.788,20.788,0,0,1-2.627-7.695,21.442,21.442,0,0,1,11.636-21.771,32.576,32.576,0,0,1,.375-51.236,19.02,19.02,0,0,1-17.83-16.516,18.5,18.5,0,0,1,7.695-17.642,19.2,19.2,0,0,1-6.944-12.387,18.807,18.807,0,0,1,16.328-21.02,18.048,18.048,0,0,1,6.381.375,32.207,32.207,0,0,1-3.941-12.2,33.222,33.222,0,0,1,21.4-35.284,22.152,22.152,0,0,1-.751-3.754A26.386,26.386,0,0,1,579.458,91.7a29.078,29.078,0,0,1-.375,9.009l80.7,21.02-28.152,327.5-558.346,64,1.877-19.519A68.621,68.621,0,0,1,10.039,433.839Z" transform="translate(171.013 59.671)"/><path class="i" d="M.377,457.257a28.363,28.363,0,0,1,24.211-31.905A27.1,27.1,0,0,1,42.23,428.73a55.1,55.1,0,0,1,80.7-1.126,54.215,54.215,0,0,1,30.216-14.264c1.877-.188,3.941-.375,5.818-.563A16.1,16.1,0,0,1,173.042,397.2a16.477,16.477,0,0,1,14.639,5.63,28.448,28.448,0,0,1,18.58-10.7,27.826,27.826,0,0,1,18.393,3.754,28.828,28.828,0,0,1,16.7-8.633,28.329,28.329,0,0,1,31.53,22.146l1.689-1.126a27.571,27.571,0,0,1,20.269-2.627,19.581,19.581,0,0,1,16.891-19.331,19.27,19.27,0,0,1,14.451,3.754,29.439,29.439,0,0,1,16.14-8.07,28.053,28.053,0,0,1,28.527,14.264,33.747,33.747,0,0,1,12.95-4.88,30.216,30.216,0,0,1,10.885.375,46.153,46.153,0,0,1,39.037-36.222,47.978,47.978,0,0,1,20.832,1.877,15.443,15.443,0,0,1,13.513-15.577,10.7,10.7,0,0,1,2.44-.188,21.117,21.117,0,0,1,16.891-13.513,22.873,22.873,0,0,1,5.067,0A28.38,28.38,0,0,1,505.8,304.3a28.407,28.407,0,0,1,.188-24.961,10.959,10.959,0,0,1-4.317-7.507,11.221,11.221,0,0,1,6.944-12.011,18.768,18.768,0,0,1-6.569-12.2,19.845,19.845,0,0,1,7.507-18.2,28.828,28.828,0,0,1-8.633-16.7,28.142,28.142,0,0,1,12.2-27.214,16.343,16.343,0,0,1,8.821-28.152h1.126A28.747,28.747,0,0,1,521,149.463a31.843,31.843,0,0,1,16.328-32.281,82.027,82.027,0,0,1-2.252-9.759,55.2,55.2,0,0,1,47.3-62.122c30.216-3.754,58.181,17.454,62.122,47.671a55.2,55.2,0,0,1-47.3,62.122,68.9,68.9,0,0,1-8.633.563l35.471,196.876L500.355,500.986,43.731,536.458,27.779,482.031A28.7,28.7,0,0,1,.377,457.257Z" transform="translate(203.383 38.881)"/><g transform="translate(302.292 20.746)"><g transform="translate(172.665 194.248)"><path class="j" d="M152.182,159.929a106.644,106.644,0,0,1,7.695-14.451c3-4.88,6.381-10.135,6.944-15.577l11.824,9.759c.188,0,.188.188.375.375,3.191,3.378-7.319,18.2-23.46,32.844l-4.5,3.941a15.73,15.73,0,0,1-1.5-5.63C149.179,167.248,150.68,163.495,152.182,159.929Z" transform="translate(-86.494 -101.56)"/><path class="k" d="M190.27,206.575c-.188-.188-.188-.188-.188-.375L156.3,156.277,201.906,114.8l34.721,28.527c-.563,5.443-3.941,10.7-6.944,15.577a152.8,152.8,0,0,0-7.695,14.451c-1.5,3.566-3,7.319-2.815,11.261a17.771,17.771,0,0,0,1.5,5.63C206.41,202.446,193.085,209.578,190.27,206.575Z" transform="translate(-156.3 -114.8)"/></g><g transform="translate(144.888 84.674)"><path class="l" d="M149.753,63c20.645,25.337,42.228,49.735,68.691,68.691,10.51,7.507,21.958,14.264,34.345,18.017a68.37,68.37,0,0,0,26.838,2.815l16.516,19.331h0c-13.888,12.574-33.407,14.827-47.483,5.255L120.1,89.838Z" transform="translate(-120.1 -50.644)"/><path class="m" d="M231.836,155.293c-12.387-3.754-23.835-10.322-34.345-18.017C171.028,118.32,149.445,93.922,128.8,68.585l2.252-2.064c15.39-14.076,38.287-13.325,51.049,1.5l76.761,89.9A65.547,65.547,0,0,1,231.836,155.293Z" transform="translate(-99.147 -56.416)"/></g><g transform="translate(65.315 155.961)"><path class="m" d="M234.376,182.609,194.4,144.886A37.951,37.951,0,0,1,206.411,123.3l31.718-28.9L310.2,225.775c-11.448-.563-22.709-4.129-32.844-9.384C261.4,207.946,247.7,195.184,234.376,182.609Z" transform="translate(-194.028 -94.4)"/><path class="l" d="M191.105,121.3l39.976,37.724c13.325,12.574,26.838,25.337,43.166,33.97,10.135,5.443,21.583,9.009,32.844,9.384l2.628,4.692c8.258,14.827,4.129,34.345-9.759,46.92L199.926,150.766A33.261,33.261,0,0,1,191.105,121.3Z" transform="translate(-190.545 -70.814)"/></g><path class="n" d="M201.044,148a46.59,46.59,0,0,1-6.944,2.627C196.164,149.877,198.6,149.126,201.044,148Z" transform="translate(-18.995 108.558)"/><path class="n" d="M192.53,143.8c-1.877,1.314-3.754,2.44-5.63,3.566A46.722,46.722,0,0,0,192.53,143.8Z" transform="translate(3.031 104.875)"/><path class="n" d="M195.343,145.7c-1.877,1.126-3.566,2.065-5.443,3C191.777,147.764,193.466,146.826,195.343,145.7Z" transform="translate(-5.411 106.541)"/><path class="j" d="M157.224,144c9.947-11.073,16.7-21.583,18.2-28.9l7.507,9.947c2.815,3.566,0,11.636-6.944,21.208A38.76,38.76,0,0,0,166.8,144Z" transform="translate(67.24 79.711)"/><path class="k" d="M172.573,163.344c.751-.375,1.689-.751,2.627-1.314,1.689-.938,3.566-1.877,5.443-3s3.754-2.252,5.63-3.566a161.942,161.942,0,0,0,17.83-14.076A148.8,148.8,0,0,0,214.989,130.5c3.191,0,6.381,0,9.572.188a36.656,36.656,0,0,1,9.2,2.252,131.62,131.62,0,0,1-18.768,20.645c-18.768,17.079-38.662,26.838-44.292,21.583l-9.2-8.446a29.138,29.138,0,0,0,3.941-.751A67,67,0,0,0,172.573,163.344Z" transform="translate(9.476 93.214)"/><path class="o" d="M306.776,214c-8.821-1.877-16.14-7.695-22.9-13.513A969.887,969.887,0,0,1,161.7,79.055c2.628-2.064,5.255-4.317,7.695-6.569,13.888-12.575,24.211-26.65,29.841-38.287,30.967,19.519,57.055,43.166,76.573,69.254l62.31,82.767c-1.5,7.319-8.258,17.83-18.2,28.9C315.409,214.935,310.9,214.935,306.776,214Z" transform="translate(-95.261 8.779)"/><path class="p" d="M171.7,77.619A125.811,125.811,0,0,0,204.919,58.1,995.574,995.574,0,0,0,327.1,179.528c6.944,5.818,14.264,11.448,22.9,13.513a60.215,60.215,0,0,0,12.95.938c-3.378,3.566-6.944,7.319-10.885,10.885a161.938,161.938,0,0,1-17.83,14.076c-1.877,1.314-3.754,2.44-5.63,3.566s-3.566,2.065-5.443,3c-.938.375-1.689.938-2.628,1.314a46.591,46.591,0,0,1-6.944,2.627,17.912,17.912,0,0,1-3.941.751l-76.573-69.817C209.424,138.427,188.216,110.275,171.7,77.619Z" transform="translate(-138.856 29.734)"/><path class="j" d="M301.575,99.046A962.545,962.545,0,0,1,235.7,11.4,337.812,337.812,0,0,1,339.3,54.191c-5.63,11.824-15.953,25.712-29.841,38.287C306.643,94.73,304.2,96.982,301.575,99.046Z" transform="translate(-235.325 -11.212)"/><path class="k" d="M288.744,118.653A336.547,336.547,0,0,1,255.9,11.3h.188a998.443,998.443,0,0,0,65.875,87.646C310.515,108.33,298.879,114.9,288.744,118.653Z" transform="translate(-255.9 -11.3)"/><path class="q" d="M204.044,102.949a41,41,0,0,1,13.325-26.463A41.622,41.622,0,0,1,276.3,79.3a42.679,42.679,0,0,1,10.51,22.146,41.639,41.639,0,0,1-72.069,33.97A41.342,41.342,0,0,1,204.044,102.949Z" transform="translate(-123.342 36.309)"/><g transform="translate(78.81 91.022)"><path class="j" d="M241.685,118.545c-14.264-2.252-27.214-10.51-36.785-21.4a41,41,0,0,1,13.325-26.463A41.622,41.622,0,0,1,277.156,73.5a42.68,42.68,0,0,1,10.51,22.146,51.456,51.456,0,0,1-5.443,8.633C272.84,115.729,256.512,120.8,241.685,118.545Z" transform="translate(-204.697 -59.799)"/><path class="k" d="M204.881,80.389c9.572,10.885,22.522,19.331,36.785,21.4,14.827,2.252,31.155-2.815,40.539-14.451a51.452,51.452,0,0,0,5.443-8.633,41.694,41.694,0,1,1-82.767,1.689Z" transform="translate(-204.679 -43.227)"/></g><g transform="translate(88.03 100.066)"><path class="a" d="M214.091,72.488,268.33,72.3a24.475,24.475,0,0,1,3,5.818l-60.433.188C211.838,76.429,212.964,74.364,214.091,72.488Z" transform="translate(-208.844 -57.881)"/><path class="r" d="M211.764,75.588,272.2,75.4a27.644,27.644,0,0,1,2.064,8.633l-64.562.188A36.1,36.1,0,0,1,211.764,75.588Z" transform="translate(-209.521 -55.163)"/><path class="r" d="M217.655,73.03a32.611,32.611,0,0,1,45.981,2.252c1.126,1.314,2.064,2.628,3,3.941l-54.239.188A24.474,24.474,0,0,1,217.655,73.03Z" transform="translate(-206.966 -64.617)"/><path class="a" d="M217.2,96.288l36.41-.188A31.918,31.918,0,0,1,217.2,96.288Z" transform="translate(-202.945 -37.014)"/><path class="r" d="M216.818,97.709A34.246,34.246,0,0,1,211,88.888l59.682-.188a31.255,31.255,0,0,1-8.07,11.261,26.153,26.153,0,0,1-3.566,2.815l-36.41.188A37.771,37.771,0,0,1,216.818,97.709Z" transform="translate(-208.381 -43.502)"/><path class="a" d="M209.784,80.188,274.345,80a32.833,32.833,0,0,1-2.44,16.328l-59.682.188A32.833,32.833,0,0,1,209.784,80.188Z" transform="translate(-209.605 -51.13)"/></g></g><path class="f" d="M13.945,27.833A13.889,13.889,0,1,0,.056,13.944,13.889,13.889,0,0,0,13.945,27.833Z" transform="translate(86.495 353.383) rotate(-106.81)"/><path class="f" d="M318.5,176.8a4.5,4.5,0,1,0,4.5-4.5A4.567,4.567,0,0,0,318.5,176.8Z" transform="translate(-76.64 150.61)"/><path class="f" d="M112.4,64.119a7.226,7.226,0,1,0,7.132-7.319A7.171,7.171,0,0,0,112.4,64.119Z" transform="translate(510.824 49.34)"/><path class="f" d="M73.5,14.948A11.448,11.448,0,1,0,84.948,3.5,11.494,11.494,0,0,0,73.5,14.948Z" transform="translate(614.286 2.607)"/><path class="g" d="M263.1,193.33A16.8,16.8,0,1,0,280.368,177,16.792,16.792,0,0,0,263.1,193.33Z" transform="translate(58.146 154.729)"/><path class="g" d="M15.312,30.514a15.2,15.2,0,1,0-15.2-15.2A15.2,15.2,0,0,0,15.312,30.514Z" transform="matrix(-0.668, -0.745, 0.745, -0.668, 20.137, 467.482)"/><path class="g" d="M130,162.595a7.885,7.885,0,1,0,8.07-7.695A7.935,7.935,0,0,0,130,162.595Z" transform="translate(458.875 135.354)"/><circle class="g" cx="4.504" cy="4.504" r="4.504" transform="translate(477.96 335.86)"/><circle class="g" cx="4.504" cy="4.504" r="4.504" transform="translate(598.075 253.469)"/><path class="i" d="M69.3,56.714A12.3,12.3,0,1,0,81.877,44.7,12.221,12.221,0,0,0,69.3,56.714Z" transform="translate(624.677 38.729)"/><circle class="i" cx="5.067" cy="5.067" r="5.067" transform="translate(679.903 208.426)"/><path class="i" d="M304.9,228.514A12.3,12.3,0,1,0,317.477,216.5,12.221,12.221,0,0,0,304.9,228.514Z" transform="translate(-53.095 189.362)"/><path class="i" d="M353.3,204.117a4.411,4.411,0,1,0,4.5-4.317A4.53,4.53,0,0,0,353.3,204.117Z" transform="translate(-176.565 174.722)"/><path class="i" d="M380.3,225.51a6.2,6.2,0,1,0,6.381-6.006A6.123,6.123,0,0,0,380.3,225.51Z" transform="translate(-257.804 191.99)"/><path class="i" d="M98.7,185.105a17.179,17.179,0,1,1,16.7,17.642A17.071,17.071,0,0,1,98.7,185.105Z" transform="translate(530.341 147.189)"/><path class="i" d="M140.607,215.523a7.51,7.51,0,1,0,15.014.375A7.534,7.534,0,0,0,148.3,208.2,7.3,7.3,0,0,0,140.607,215.523Z" transform="translate(429.128 182.083)"/><path class="i" d="M165.5,210.135a5.821,5.821,0,1,1,5.63,6.006A5.846,5.846,0,0,1,165.5,210.135Z" transform="translate(360.877 178.838)"/></g></g></svg>