<?xml version="1.0" encoding="iso-8859-1"?>
<!-- Generator: Adobe Illustrator 18.1.1, SVG Export Plug-In . SVG Version: 6.00 Build 0)  -->
<svg xmlns="http://www.w3.org/2000/svg" xmlns:xlink="http://www.w3.org/1999/xlink" version="1.1" id="Capa_1" x="0px" y="0px" viewBox="0 0 19.416 19.416" style="enable-background:new 0 0 19.416 19.416;" xml:space="preserve" width="512px" height="512px">
<g>
	<path d="M19.01,5.052c-0.28-0.063-0.56,0.112-0.623,0.393c-0.004,0.012-0.089,0.363-0.362,0.839l-4.9-4.9   c0.453-0.254,0.796-0.344,0.85-0.357c0.278-0.064,0.452-0.342,0.389-0.622c-0.063-0.279-0.343-0.456-0.622-0.392   c-0.053,0.012-5.173,1.274-4.234,8.72c-6.756-0.528-9.324,3.63-9.434,3.817c-0.125,0.208-0.086,0.469,0.078,0.633   c0.029,0.029,0.063,0.056,0.1,0.078c0.246,0.147,0.566,0.067,0.714-0.177c0.028-0.049,0.247-0.395,0.691-0.848l5.522,5.522   c-0.453,0.444-0.798,0.661-0.846,0.691c-0.247,0.146-0.328,0.465-0.18,0.713c0.022,0.038,0.049,0.072,0.079,0.102   c0.165,0.164,0.425,0.203,0.634,0.078c0.187-0.111,4.345-2.678,3.817-9.435c7.446,0.939,8.708-4.182,8.721-4.233   C19.465,5.396,19.29,5.115,19.01,5.052z M8.041,16.74l-5.366-5.364c0.56-0.395,1.266-0.786,2.142-1.089L9.13,14.6   C8.826,15.476,8.435,16.182,8.041,16.74z M9.514,13.104L6.313,9.902c0.956-0.169,2.055-0.23,3.316-0.114   C9.745,11.049,9.683,12.149,9.514,13.104z M10.569,8.848c-0.158-1.106-0.175-2.055-0.093-2.876l2.964,2.964   C12.62,9.019,11.672,9.004,10.569,8.848z M15.006,8.621l-4.22-4.22c0.312-0.987,0.788-1.695,1.277-2.198l5.139,5.138   C16.696,7.831,15.989,8.308,15.006,8.621z" fill="#FFFFFF"/>
</g>
<g>
</g>
<g>
</g>
<g>
</g>
<g>
</g>
<g>
</g>
<g>
</g>
<g>
</g>
<g>
</g>
<g>
</g>
<g>
</g>
<g>
</g>
<g>
</g>
<g>
</g>
<g>
</g>
<g>
</g>
</svg>
