<svg xmlns="http://www.w3.org/2000/svg" xmlns:xlink="http://www.w3.org/1999/xlink" viewBox="0 0 1920.371 1080.4"><defs><style>.a{fill:#fff;}.b{fill:#8282dc;}.c{clip-path:url(#a);}.d{fill:#9fa5eb;}.e{fill:#b7bcf9;}.f{fill:#5f5fa5;}.g{fill:#515180;}.h{opacity:0.7;}.i{fill:#191433;}</style><clipPath id="a"><rect class="a" width="1920" height="1080"/></clipPath></defs><g transform="translate(0.371)"><rect class="b" width="1920" height="1080"/><g class="c"><circle class="d" cx="818" cy="818" r="818" transform="translate(142 87)"/><circle class="e" cx="656" cy="656" r="656" transform="translate(304 249)"/></g><path class="f" d="M19,307.652S201.372,134,219.792,134c21.7,0,297.386,292.244,297.386,292.244s126.986-46.59,153.035-42.354,61.865,72,78.145,63.531,107.45-63.531,126.986-55.06S995.818,557.542,995.818,557.542V786.254H19Z" transform="translate(-19.371 294.146)"/><path class="g" d="M1062.085,161.925s-107.6-53.411-119.037-47.694c-15.9,7.95-27.461,49.14-36.458,52.191-8.552,2.9-54.37-22.963-65.435-21.118-17.343,2.89-33.965,19.511-46.972,26.015-8.175,4.089-36.926-12.685-54.2-9.394-15.175,2.89-33.965,40.469-43.359,37.577-11.184-3.443-63.8-24.14-72.264-20.233-14.092,6.5-114.922,97.557-127.186,97.557-7.95,0-33.965-53.476-41.191-62.148s-45.526-16.409-50.042-12.646c-6.5,5.42-20.053,41.733-26.015,46.068-6.818,4.958-30.351,16.259-44.622,23.667-15.015,7.792-48.154,182.451-65.038,195.114-11.562,8.672-133.074-26.739-154.645-40.469-15.9-10.118-64.786-117.164-85.9-183.463a555.084,555.084,0,0,0-6.491,338.108l1038.854,66.512Z" transform="translate(857.823 367.444)"/><g transform="matrix(0.996, -0.087, 0.087, 0.996, 1317.003, 35.645)"><g transform="translate(137.45 30)"><circle class="a" cx="8.03" cy="8.03" r="8.03" transform="translate(240.894 99.776)"/><circle class="a" cx="8.03" cy="8.03" r="8.03" transform="translate(269.801 30.487)"/><circle class="a" cx="8.03" cy="8.03" r="8.03" transform="translate(0 0)"/><circle class="a" cx="8.03" cy="8.03" r="8.03" transform="translate(125.265 141.35)"/></g><g class="h" transform="translate(326.953 108.705)"><circle class="d" cx="8.03" cy="8.03" r="8.03"/></g><g class="h" transform="translate(352.649 187.409)"><circle class="d" cx="8.03" cy="8.03" r="8.03"/></g><g class="h" transform="translate(532.516 150.868)"><circle class="d" cx="8.03" cy="8.03" r="8.03"/></g><g class="h" transform="translate(175.993 131.192)"><circle class="d" cx="8.03" cy="8.03" r="8.03"/></g><g class="h" transform="translate(265.927 108.705)"><circle class="d" cx="8.03" cy="8.03" r="8.03"/></g><g class="h" transform="translate(70 74.974)"><circle class="d" cx="8.03" cy="8.03" r="8.03"/></g></g><path class="i" d="M6566,852.551h62.347V682.833h49.844V656.469h15.575v-7.031h44.377v9.808h21.27V798.861h22.358V760.207l2.183-17.308V729.053l-2.183-10.385L6778.5,712.9l-3.272-6.346-2.728-9.231V591.168l1.762-11.021.966-6.04,1.808-9.7,1.465-7.858,3.271-24.808,2.183-24.231,3.272-23.654v-6.346h58.9l4.362,25.385v47.308L6854.3,585.4v39.808h42.538V831.745h13.634l3.817-7.5V798.861l6-11.539s-.545-14.423,0-16.154,0-16.154,0-16.154,1.091-13.846,0-15.577-3.273-14.423-3.273-14.423-1.636-14.423-2.726-16.154,0-11.538,0-11.538l-3.817-17.885V665.591l-3.271-16.154V599.245l3.271-11.538v-22.5l3.817-12.115,2.726-10.961,3.273-10.385V520.784h55.625v14.423l4.364,17.884v12.115l5.453,20.192V647.13h18.542v54.808h33.267V652.9h103.616v29.934h69.261l4.363-9.742,7.634-9.231h6v18.972h43.629v49.1h22.9V721.553h16.361v10.384h35.448v92.308h9.27v29.423h13.636v-9.231h28.357v9.231h15.27V819.053h8.726V812.13h21.27V739.438h8.181V725.015h28.358v-6.923h61.624v6.923h23.45v14.423h9.816V847.9h17.451V713.476h32.721l12.543-40.962h10.362v-15H7658.7v12.692l18,43.269h31.63V694.438h10.907v81.346h14.724v-45h26.177V703.092H7770.5l11.452-40.385h15.271l11.451,40.385h10.906v27.692h12.544v45h29.449V694.438h11.452l8.181-13.269h45.265l11.453,13.269h18.541V839.245h29.447v13.269h21.815V842.13h28.9V829.438h10.907v-6.923h8.725l-2.728-131.538h12V650.592l6-36.346h34.357l10.362,36.346v38.077l7.634,2.308v45.577h38.174v17.308h27.27V804.63h7.089V794.245h7.635V775.784h20.725v15.577h23.994v6.923h13.09v6.346h26.176V791.361h17.451V804.63h12v17.885h19.087V650.592h21.814v-8.077h20.179v8.077h33.266V852.515h20.724V839.245h25.086v-9.808H8486v322.65H6566Z" transform="translate(-6566 -72.087)"/><g transform="translate(-60.797 96.199) rotate(-11)"><g transform="translate(158.265 45.771)"><circle class="a" cx="7.886" cy="7.886" r="7.886" transform="translate(28.389 47.314)"/><circle class="a" cx="7.886" cy="7.886" r="7.886" transform="translate(0 126.172)"/><circle class="a" cx="7.886" cy="7.886" r="7.886" transform="translate(264.961 160.869)"/><circle class="a" cx="7.886" cy="7.886" r="7.886" transform="translate(141.943)"/></g><g class="h" transform="translate(256.43 118.32)"><circle class="d" cx="7.886" cy="7.886" r="7.886"/></g><g class="h" transform="translate(233.126 30)"><circle class="d" cx="7.886" cy="7.886" r="7.886"/></g><g class="h" transform="translate(70 71.006)"><circle class="d" cx="7.886" cy="7.886" r="7.886"/></g><g class="h" transform="translate(393.339 93.086)"><circle class="d" cx="7.886" cy="7.886" r="7.886"/></g><g class="h" transform="translate(311.776 118.32)"><circle class="d" cx="7.886" cy="7.886" r="7.886"/></g><g class="h" transform="translate(489.467 156.172)"><circle class="d" cx="7.886" cy="7.886" r="7.886"/></g><g class="h" transform="translate(120.869 139.535)"><circle class="d" cx="7.886" cy="7.886" r="7.886"/></g></g><g transform="translate(559 -1)"><g transform="translate(167.874 30)"><circle class="a" cx="11.652" cy="11.652" r="11.652" transform="translate(349.552 144.781)"/><circle class="a" cx="11.652" cy="11.652" r="11.652" transform="translate(391.498 44.239)"/><circle class="a" cx="11.652" cy="11.652" r="11.652" transform="translate(0 0)"/><circle class="a" cx="11.652" cy="11.652" r="11.652" transform="translate(181.767 205.107)"/></g><g class="h" transform="translate(442.855 144.205)"><circle class="d" cx="11.652" cy="11.652" r="11.652"/></g><g class="h" transform="translate(480.141 258.41)"><circle class="d" cx="11.652" cy="11.652" r="11.652"/></g><g class="h" transform="translate(741.139 205.387)"><circle class="d" cx="11.652" cy="11.652" r="11.652"/></g><g class="h" transform="translate(223.803 176.835)"><circle class="d" cx="11.652" cy="11.652" r="11.652"/></g><g class="h" transform="translate(354.302 144.205)"><circle class="d" cx="11.652" cy="11.652" r="11.652"/></g><g class="h" transform="translate(70 95.26)"><circle class="d" cx="11.652" cy="11.652" r="11.652"/></g></g></g></svg>
