<svg xmlns="http://www.w3.org/2000/svg" xmlns:xlink="http://www.w3.org/1999/xlink" viewBox="0 0 1920 1080.4"><defs><style>.a{fill:#fff;}.b{fill:#64a1f4;}.c{clip-path:url(#a);}.d{fill:#8dbdff;}.e{fill:#bfd6f6;}.f{fill:#2d79e1;}.g{fill:#3b7dd8;}.h{opacity:0.7;}.i{fill:url(#b);}</style><clipPath id="a"><rect class="a" width="1920" height="1080"/></clipPath><linearGradient id="b" x1="0.5" y1="0.242" x2="0.5" y2="0.985" gradientUnits="objectBoundingBox"><stop offset="0" stop-color="#142633"/><stop offset="1" stop-color="#131313"/></linearGradient></defs><rect class="b" width="1920" height="1080"/><g class="c"><circle class="d" cx="818" cy="818" r="818" transform="translate(142 87)"/><path class="e" d="M656,0c362.3,0,656,293.7,656,656s-293.7,656-656,656S0,1018.3,0,656,293.7,0,656,0Z" transform="translate(304 249)"/></g><path class="f" d="M19,307.652S201.372,134,219.792,134c21.7,0,297.386,292.244,297.386,292.244s126.986-46.59,153.035-42.354,61.865,72,78.145,63.531,107.45-63.531,126.986-55.06S995.818,557.542,995.818,557.542V786.254H19Z" transform="translate(-19 294.146)"/><path class="g" d="M1062.085,161.925s-107.6-53.411-119.037-47.694c-15.9,7.95-27.461,49.14-36.458,52.191-8.552,2.9-54.37-22.963-65.435-21.118-17.343,2.89-33.965,19.511-46.972,26.015-8.175,4.089-36.926-12.685-54.2-9.394-15.175,2.89-33.965,40.469-43.359,37.577-11.184-3.443-63.8-24.14-72.264-20.233-14.092,6.5-114.922,97.557-127.186,97.557-7.95,0-33.965-53.476-41.191-62.148s-45.526-16.409-50.042-12.646c-6.5,5.42-20.053,41.733-26.015,46.068-6.818,4.958-30.351,16.259-44.622,23.667-15.015,7.792-48.154,182.451-65.038,195.114-11.562,8.672-133.074-26.739-154.645-40.469-15.9-10.118-64.786-117.164-85.9-183.463a555.084,555.084,0,0,0-6.491,338.108l1038.854,66.512Z" transform="translate(857.823 367.444)"/><g transform="matrix(0.996, -0.087, 0.087, 0.996, 1317.003, 35.645)"><g transform="translate(137.45 30)"><circle class="a" cx="8.03" cy="8.03" r="8.03" transform="translate(240.894 99.776)"/><circle class="a" cx="8.03" cy="8.03" r="8.03" transform="translate(269.801 30.487)"/><circle class="a" cx="8.03" cy="8.03" r="8.03" transform="translate(0 0)"/><circle class="a" cx="8.03" cy="8.03" r="8.03" transform="translate(125.265 141.35)"/></g><g class="h" transform="translate(326.953 108.705)"><circle class="e" cx="8.03" cy="8.03" r="8.03"/></g><g class="h" transform="translate(352.649 187.409)"><circle class="e" cx="8.03" cy="8.03" r="8.03"/></g><g class="h" transform="translate(532.516 150.868)"><circle class="e" cx="8.03" cy="8.03" r="8.03"/></g><g class="h" transform="translate(175.993 131.192)"><circle class="e" cx="8.03" cy="8.03" r="8.03"/></g><g class="h" transform="translate(265.927 108.705)"><circle class="e" cx="8.03" cy="8.03" r="8.03"/></g><g class="h" transform="translate(70 74.974)"><circle class="e" cx="8.03" cy="8.03" r="8.03"/></g></g><path class="i" d="M6566,932.441h62.347V726.57h49.844V694.59h15.575v-8.529h44.377v11.9h21.27V867.313h22.358V820.426l2.183-20.995-2.183-21.694s-13-67.412-11.715-187.113c.818-76.28,17.17-113.109,17.17-113.109h58.9s12.564,43.249,14.609,88.038-6.431,91.116-6.431,91.116h42.538V907.2h13.634l3.817-9.1,6-30.792s-9.845-55.029-9.816-205.622C6910.5,554.749,6920.292,530,6920.292,530h55.625s7.363,47.063,9.817,85.378a514.392,514.392,0,0,1,0,67.882h18.542v66.483h33.267V690.26h103.616v36.31h69.261l4.363-11.817,7.634-11.2h6V726.57h43.629v59.565h22.9v-12.6h16.361v12.6h35.448V898.106h9.27V933.8h13.636V922.6h28.357v11.2h15.27V891.807h8.726v-8.4h21.27V795.232h8.181v-17.5h28.358v-8.4h61.624v8.4h23.45v17.5h9.816V926.8h17.451V763.74h32.721l12.543-49.687h10.362v-18.2H7658.7v15.4l18,52.486h31.63V740.646h10.907v98.674h14.724V784.735h26.177V751.144H7770.5l11.452-48.987h15.271l11.451,48.987h10.906v33.591h12.544v54.586h29.449V740.646h11.452l8.181-16.1h45.265l11.453,16.1h18.541V916.3h29.447v16.1h21.815V919.8h28.9V904.4h10.907v-8.4h8.725l-2.728-159.559h12V687.46l6-44.089h34.357l10.362,44.089v46.188l7.634,2.8v55.286h38.174v20.995h27.27v61.584h7.089v-12.6h7.635V839.321h20.725v18.9h23.994v8.4h13.09v7.7h26.176v-16.1h17.451v16.1h12v21.695h19.087V687.46h21.814v-9.8h20.179v9.8h33.266V932.4h20.724V916.3h25.086V904.4H8486v391.38H6566Z" transform="translate(-6566 -215.384)"/><g transform="translate(-60.797 96.199) rotate(-11)"><g transform="translate(158.265 45.771)"><circle class="a" cx="7.886" cy="7.886" r="7.886" transform="translate(28.389 47.314)"/><circle class="a" cx="7.886" cy="7.886" r="7.886" transform="translate(0 126.172)"/><circle class="a" cx="7.886" cy="7.886" r="7.886" transform="translate(264.961 160.869)"/><circle class="a" cx="7.886" cy="7.886" r="7.886" transform="translate(141.943)"/></g><g class="h" transform="translate(256.43 118.32)"><circle class="e" cx="7.886" cy="7.886" r="7.886"/></g><g class="h" transform="translate(233.126 30)"><circle class="e" cx="7.886" cy="7.886" r="7.886"/></g><g class="h" transform="translate(70 71.006)"><circle class="e" cx="7.886" cy="7.886" r="7.886"/></g><g class="h" transform="translate(393.339 93.086)"><circle class="e" cx="7.886" cy="7.886" r="7.886"/></g><g class="h" transform="translate(311.776 118.32)"><circle class="e" cx="7.886" cy="7.886" r="7.886"/></g><g class="h" transform="translate(489.467 156.172)"><circle class="e" cx="7.886" cy="7.886" r="7.886"/></g><g class="h" transform="translate(120.869 139.535)"><circle class="e" cx="7.886" cy="7.886" r="7.886"/></g></g><g transform="translate(559 -1)"><g transform="translate(167.874 30)"><circle class="a" cx="11.652" cy="11.652" r="11.652" transform="translate(349.552 144.781)"/><circle class="a" cx="11.652" cy="11.652" r="11.652" transform="translate(391.498 44.239)"/><circle class="a" cx="11.652" cy="11.652" r="11.652" transform="translate(0 0)"/><circle class="a" cx="11.652" cy="11.652" r="11.652" transform="translate(181.767 205.107)"/></g><g class="h" transform="translate(442.855 144.205)"><circle class="e" cx="11.652" cy="11.652" r="11.652"/></g><g class="h" transform="translate(480.141 258.41)"><circle class="e" cx="11.652" cy="11.652" r="11.652"/></g><g class="h" transform="translate(741.139 205.387)"><circle class="e" cx="11.652" cy="11.652" r="11.652"/></g><g class="h" transform="translate(223.803 176.835)"><circle class="e" cx="11.652" cy="11.652" r="11.652"/></g><g class="h" transform="translate(354.302 144.205)"><circle class="e" cx="11.652" cy="11.652" r="11.652"/></g><g class="h" transform="translate(70 95.26)"><circle class="e" cx="11.652" cy="11.652" r="11.652"/></g></g></svg>