<svg xmlns="http://www.w3.org/2000/svg" xmlns:xlink="http://www.w3.org/1999/xlink" viewBox="0 0 1920 1080.4"><defs><style>.a{fill:#fff;}.b{fill:#8282dc;}.c{clip-path:url(#a);}.d{fill:#9fa5eb;}.e{fill:#b7bcf9;}.f{fill:#5f5fa5;}.g{fill:#515180;}.h{opacity:0.7;}.i{fill:url(#b);}</style><clipPath id="a"><rect class="a" width="1920" height="1080"/></clipPath><linearGradient id="b" x1="0.5" y1="0.242" x2="0.5" y2="0.985" gradientUnits="objectBoundingBox"><stop offset="0" stop-color="#191433"/><stop offset="1" stop-color="#131313"/></linearGradient></defs><rect class="b" width="1920" height="1080"/><g class="c"><circle class="d" cx="818" cy="818" r="818" transform="translate(142 87)"/><circle class="e" cx="656" cy="656" r="656" transform="translate(304 249)"/></g><path class="f" d="M19,307.652S201.372,134,219.792,134c21.7,0,297.386,292.244,297.386,292.244s126.986-46.59,153.035-42.354,61.865,72,78.145,63.531,107.45-63.531,126.986-55.06S995.818,557.542,995.818,557.542V786.254H19Z" transform="translate(-19 294.146)"/><path class="g" d="M1062.085,161.925s-107.6-53.411-119.037-47.694c-15.9,7.95-27.461,49.14-36.458,52.191-8.552,2.9-54.37-22.963-65.435-21.118-17.343,2.89-33.965,19.511-46.972,26.015-8.175,4.089-36.926-12.685-54.2-9.394-15.175,2.89-33.965,40.469-43.359,37.577-11.184-3.443-63.8-24.14-72.264-20.233-14.092,6.5-114.922,97.557-127.186,97.557-7.95,0-33.965-53.476-41.191-62.148s-45.526-16.409-50.042-12.646c-6.5,5.42-20.053,41.733-26.015,46.068-6.818,4.958-30.351,16.259-44.622,23.667-15.015,7.792-48.154,182.451-65.038,195.114-11.562,8.672-133.074-26.739-154.645-40.469-15.9-10.118-64.786-117.164-85.9-183.463a555.084,555.084,0,0,0-6.491,338.108l1038.854,66.512Z" transform="translate(857.823 367.444)"/><g transform="matrix(0.996, -0.087, 0.087, 0.996, 1317.003, 35.645)"><g transform="translate(137.45 30)"><circle class="a" cx="8.03" cy="8.03" r="8.03" transform="translate(240.894 99.776)"/><circle class="a" cx="8.03" cy="8.03" r="8.03" transform="translate(269.801 30.487)"/><circle class="a" cx="8.03" cy="8.03" r="8.03" transform="translate(0 0)"/><circle class="a" cx="8.03" cy="8.03" r="8.03" transform="translate(125.265 141.35)"/></g><g class="h" transform="translate(326.953 108.705)"><circle class="d" cx="8.03" cy="8.03" r="8.03"/></g><g class="h" transform="translate(352.649 187.409)"><circle class="d" cx="8.03" cy="8.03" r="8.03"/></g><g class="h" transform="translate(532.516 150.868)"><circle class="d" cx="8.03" cy="8.03" r="8.03"/></g><g class="h" transform="translate(175.993 131.192)"><circle class="d" cx="8.03" cy="8.03" r="8.03"/></g><g class="h" transform="translate(265.927 108.705)"><circle class="d" cx="8.03" cy="8.03" r="8.03"/></g><g class="h" transform="translate(70 74.974)"><circle class="d" cx="8.03" cy="8.03" r="8.03"/></g></g><path class="i" d="M6566,852.774h62.347V682.955h49.844v-26.38h15.575V649.54h44.377v9.814h21.27v139.7h22.358V760.374l2.183-17.318V729.2l-2.183-10.391-3.271-5.773-3.272-6.35-2.728-9.236V591.236l1.762-11.028.966-6.044,1.808-9.7,1.465-7.863,3.271-24.822,2.183-24.245,3.272-23.668v-6.35h58.9l4.362,25.4V550.25l3.816,35.213v39.831h42.538V831.956h13.634l3.817-7.5v-25.4l6-11.545s-.545-14.432,0-16.163,0-16.163,0-16.163,1.091-13.854,0-15.586-3.273-14.432-3.273-14.432-1.636-14.432-2.726-16.164,0-11.545,0-11.545l-3.817-17.9V665.7L6907.2,649.54V599.318l3.271-11.545V565.259l3.817-12.123,2.726-10.968,3.273-10.391V520.81h55.625v14.432l4.364,17.9v12.123l5.453,20.2v61.767h18.542v54.84h33.267V653h103.616v29.952h69.261l4.363-9.747,7.634-9.236h6v18.984h43.629v49.134h22.9V721.7h16.361v10.391h35.448v92.363h9.27v29.44h13.636v-9.236h28.357v9.236h15.27V819.256h8.726v-6.927h21.27V739.593h8.181V725.161h28.358v-6.927h61.624v6.927h23.45v14.432h9.816V848.119h17.451v-134.5h32.721l12.543-40.986h10.362V657.621H7658.7v12.7l18,43.295h31.63v-19.05h10.907v81.394h14.724V730.934h26.177V703.225H7770.5l11.452-40.409h15.271l11.451,40.409h10.906v27.709h12.544v45.027h29.449V694.566h11.452l8.181-13.277h45.265l11.453,13.277h18.541V839.46h29.447v13.277h21.815V842.346h28.9v-12.7h10.907v-6.927h8.725L8053.534,691.1h12V650.694l6-36.368h34.357l10.362,36.368v38.1l7.634,2.309v45.6h38.174v17.318h27.27v50.8h7.089V794.433h7.635V775.961h20.725v15.586h23.994v6.927h13.09v6.35h26.176V791.547h17.451v13.277h12v17.9h19.087V650.694h21.814v-8.082h20.179v8.082h33.266V852.737h20.724V839.46h25.086v-9.813H8486v322.841H6566Z" transform="translate(-6566 -72.087)"/><g transform="translate(-60.797 96.199) rotate(-11)"><g transform="translate(158.265 45.771)"><circle class="a" cx="7.886" cy="7.886" r="7.886" transform="translate(28.389 47.314)"/><circle class="a" cx="7.886" cy="7.886" r="7.886" transform="translate(0 126.172)"/><circle class="a" cx="7.886" cy="7.886" r="7.886" transform="translate(264.961 160.869)"/><circle class="a" cx="7.886" cy="7.886" r="7.886" transform="translate(141.943)"/></g><g class="h" transform="translate(256.43 118.32)"><circle class="d" cx="7.886" cy="7.886" r="7.886"/></g><g class="h" transform="translate(233.126 30)"><circle class="d" cx="7.886" cy="7.886" r="7.886"/></g><g class="h" transform="translate(70 71.006)"><circle class="d" cx="7.886" cy="7.886" r="7.886"/></g><g class="h" transform="translate(393.339 93.086)"><circle class="d" cx="7.886" cy="7.886" r="7.886"/></g><g class="h" transform="translate(311.776 118.32)"><circle class="d" cx="7.886" cy="7.886" r="7.886"/></g><g class="h" transform="translate(489.467 156.172)"><circle class="d" cx="7.886" cy="7.886" r="7.886"/></g><g class="h" transform="translate(120.869 139.535)"><circle class="d" cx="7.886" cy="7.886" r="7.886"/></g></g><g transform="translate(559 -1)"><g transform="translate(167.874 30)"><circle class="a" cx="11.652" cy="11.652" r="11.652" transform="translate(349.552 144.781)"/><circle class="a" cx="11.652" cy="11.652" r="11.652" transform="translate(391.498 44.239)"/><circle class="a" cx="11.652" cy="11.652" r="11.652" transform="translate(0 0)"/><circle class="a" cx="11.652" cy="11.652" r="11.652" transform="translate(181.767 205.107)"/></g><g class="h" transform="translate(442.855 144.205)"><circle class="d" cx="11.652" cy="11.652" r="11.652"/></g><g class="h" transform="translate(480.141 258.41)"><circle class="d" cx="11.652" cy="11.652" r="11.652"/></g><g class="h" transform="translate(741.139 205.387)"><circle class="d" cx="11.652" cy="11.652" r="11.652"/></g><g class="h" transform="translate(223.803 176.835)"><circle class="d" cx="11.652" cy="11.652" r="11.652"/></g><g class="h" transform="translate(354.302 144.205)"><circle class="d" cx="11.652" cy="11.652" r="11.652"/></g><g class="h" transform="translate(70 95.26)"><circle class="d" cx="11.652" cy="11.652" r="11.652"/></g></g></svg>