<svg xmlns="http://www.w3.org/2000/svg" xmlns:xlink="http://www.w3.org/1999/xlink" viewBox="0 0 1920 1080.4"><defs><style>.a{fill:#fff;}.b{fill:#64a1f4;}.c{clip-path:url(#a);}.d{fill:#8dbdff;}.e{fill:#bfd6f6;}.f{fill:#2d79e1;}.g{fill:#3b7dd8;}.h{opacity:0.7;}.i{fill:url(#b);}</style><clipPath id="a"><rect class="a" width="1920" height="1080"/></clipPath><linearGradient id="b" x1="0.5" y1="0.242" x2="0.5" y2="0.985" gradientUnits="objectBoundingBox"><stop offset="0" stop-color="#142633"/><stop offset="1" stop-color="#13191e"/></linearGradient></defs><rect class="b" width="1920" height="1080"/><g class="c"><circle class="d" cx="818" cy="818" r="818" transform="translate(142 87)"/><path class="e" d="M656,0c362.3,0,656,293.7,656,656s-293.7,656-656,656S0,1018.3,0,656,293.7,0,656,0Z" transform="translate(304 249)"/></g><path class="f" d="M19,307.652S201.372,134,219.792,134c21.7,0,297.386,292.244,297.386,292.244s126.986-46.59,153.035-42.354,61.865,72,78.145,63.531,107.45-63.531,126.986-55.06S995.818,557.542,995.818,557.542V786.254H19Z" transform="translate(-19 294.146)"/><path class="g" d="M1431.5,160.41s-145.026-51.73-160.44-46.193c-21.427,7.7-37.013,47.594-49.139,50.548-11.527,2.809-73.28-22.24-88.194-20.453-23.376,2.8-45.778,18.9-63.31,25.2-11.019,3.96-49.77-12.285-73.049-9.1-20.454,2.8-45.779,39.195-58.44,36.394-15.074-3.334-86.469-40.178-97.88-36.394-18.993,6.3-145.991,63.487-162.521,63.487-10.715,0-53.172,8.4-62.911,0s-62.067-58.034-68.154-54.389C538.7,174.758,515.3,219.7,507.268,223.9c-9.19,4.8-120.568-53.864-139.8-46.689-20.238,7.546-55.882,22.03-78.639,34.294-15.583,8.4-103.912,218.368-132.986,205.07-21.427-9.8-87.32-113.476-115.78-177.688C14.221,293.331,0,351.642,0,412.373,0,465.9,11.039,517.557,31.312,566.349L1431.5,630.768Z" transform="translate(488.409 384.245)"/><g transform="matrix(0.996, -0.087, 0.087, 0.996, 1317.003, 35.645)"><g transform="translate(137.45 30)"><circle class="a" cx="8.03" cy="8.03" r="8.03" transform="translate(240.894 99.776)"/><circle class="a" cx="8.03" cy="8.03" r="8.03" transform="translate(269.801 30.487)"/><circle class="a" cx="8.03" cy="8.03" r="8.03" transform="translate(0 0)"/><circle class="a" cx="8.03" cy="8.03" r="8.03" transform="translate(125.265 141.35)"/></g><g class="h" transform="translate(326.953 108.705)"><circle class="e" cx="8.03" cy="8.03" r="8.03"/></g><g class="h" transform="translate(352.649 187.409)"><circle class="e" cx="8.03" cy="8.03" r="8.03"/></g><g class="h" transform="translate(532.516 150.868)"><circle class="e" cx="8.03" cy="8.03" r="8.03"/></g><g class="h" transform="translate(175.993 131.192)"><circle class="e" cx="8.03" cy="8.03" r="8.03"/></g><g class="h" transform="translate(265.927 108.705)"><circle class="e" cx="8.03" cy="8.03" r="8.03"/></g><g class="h" transform="translate(70 74.974)"><circle class="e" cx="8.03" cy="8.03" r="8.03"/></g></g><path class="i" d="M6566,974.607h62.347V749.654h49.844V714.71h15.575v-9.32h44.377v13h21.27V903.443h22.358V852.209l2.183-22.94-2.183-23.7s-13-73.66-11.715-204.456c.818-83.35,17.17-123.593,17.17-123.593h58.9s12.564,47.258,14.609,96.2-6.431,99.561-6.431,99.561h42.538V947.03h13.634l3.817-9.941,6-33.646s-9.845-60.129-9.816-224.68c.021-116.855,9.816-143.9,9.816-143.9h55.625s7.363,51.425,9.817,93.291a614.039,614.039,0,0,1,0,74.174h18.542v72.645h33.267v-65h103.616v39.676h69.261l4.363-12.912,7.634-12.235h6v25.147h43.629V814.74h22.9V800.976h16.361V814.74h35.448v51.416h9.27v46.532h13.636V883.735h28.357v37.3h15.27v9.176h8.726v-9.176h21.27v-96.35h8.181V805.564h28.358v-9.176h61.624v9.176h23.45v19.117h9.816V911.09l17.451,1.6V790.27h32.721l12.543-54.292h10.362V716.1H7658.7v16.823l18,57.351h31.63V765.035h10.907v107.82h14.724V813.21h26.177v-36.7H7770.5l11.452-53.528h15.271l11.451,53.528h10.906v36.7h12.544v59.645h29.449V765.035h11.452l8.181-17.588h45.265l11.453,17.588h18.541V956.971h29.447v17.588h21.815V960.794h28.9V943.971h10.907V934.8h8.725l-2.728-174.348h12V706.92l6-48.175h34.357l10.362,48.175v50.469l7.634,3.059v60.41h38.174V843.8h27.27V911.09h7.089V897.326h7.635v-24.47h20.725V893.5h23.994v9.176h13.09v8.411h26.176V893.5h17.451V911.09h12V934.8h19.087V706.92h21.814V696.214h20.179V706.92h33.266V974.559h20.724V956.971h25.086v-13H8486v427.656H6566Z" transform="translate(-6566 -291.227)"/><g transform="translate(-60.797 96.199) rotate(-11)"><g transform="translate(158.265 45.771)"><circle class="a" cx="7.886" cy="7.886" r="7.886" transform="translate(28.389 47.314)"/><circle class="a" cx="7.886" cy="7.886" r="7.886" transform="translate(0 126.172)"/><circle class="a" cx="7.886" cy="7.886" r="7.886" transform="translate(264.961 160.869)"/><circle class="a" cx="7.886" cy="7.886" r="7.886" transform="translate(141.943)"/></g><g class="h" transform="translate(256.43 118.32)"><circle class="e" cx="7.886" cy="7.886" r="7.886"/></g><g class="h" transform="translate(233.126 30)"><circle class="e" cx="7.886" cy="7.886" r="7.886"/></g><g class="h" transform="translate(70 71.006)"><circle class="e" cx="7.886" cy="7.886" r="7.886"/></g><g class="h" transform="translate(393.339 93.086)"><circle class="e" cx="7.886" cy="7.886" r="7.886"/></g><g class="h" transform="translate(311.776 118.32)"><circle class="e" cx="7.886" cy="7.886" r="7.886"/></g><g class="h" transform="translate(489.467 156.172)"><circle class="e" cx="7.886" cy="7.886" r="7.886"/></g><g class="h" transform="translate(120.869 139.535)"><circle class="e" cx="7.886" cy="7.886" r="7.886"/></g></g><g transform="translate(559 -1)"><g transform="translate(167.874 30)"><circle class="a" cx="11.652" cy="11.652" r="11.652" transform="translate(349.552 144.781)"/><circle class="a" cx="11.652" cy="11.652" r="11.652" transform="translate(391.498 44.239)"/><circle class="a" cx="11.652" cy="11.652" r="11.652" transform="translate(0 0)"/><circle class="a" cx="11.652" cy="11.652" r="11.652" transform="translate(181.767 205.107)"/></g><g class="h" transform="translate(442.855 144.205)"><circle class="e" cx="11.652" cy="11.652" r="11.652"/></g><g class="h" transform="translate(480.141 258.41)"><circle class="e" cx="11.652" cy="11.652" r="11.652"/></g><g class="h" transform="translate(741.139 205.387)"><circle class="e" cx="11.652" cy="11.652" r="11.652"/></g><g class="h" transform="translate(223.803 176.835)"><circle class="e" cx="11.652" cy="11.652" r="11.652"/></g><g class="h" transform="translate(354.302 144.205)"><circle class="e" cx="11.652" cy="11.652" r="11.652"/></g><g class="h" transform="translate(70 95.26)"><circle class="e" cx="11.652" cy="11.652" r="11.652"/></g></g></svg>