 <svg version="1.0" xmlns="http://www.w3.org/2000/svg" width="700.000000pt" height="700.000000pt" viewBox="0 0 700.000000 700.000000" preserveAspectRatio="xMidYMid meet">
<metadata>
Created by potrace 1.12, written by Peter Selinger 2001-2015
</metadata>
<g transform="translate(0.000000,700.000000) scale(0.100000,-0.100000)" fill="#000000" stroke="none">
<path d="M4390 4541 c-372 -90 -1225 -305 -1315 -331 -74 -21 -121 -28 -440
-60 -110 -12 -258 -30 -328 -41 l-129 -21 -85 -61 c-113 -83 -154 -109 -242
-151 -70 -34 -81 -37 -215 -44 l-141 -8 -155 77 -156 77 -78 185 c-64 152 -86
193 -120 226 -23 23 -47 41 -54 41 -7 0 -35 -11 -62 -25 -48 -24 -50 -27 -50
-68 0 -23 31 -142 72 -275 l72 -234 195 -96 196 -97 240 5 240 6 129 37 c71
21 133 36 138 35 15 -5 -25 -58 -254 -333 -191 -230 -243 -285 -447 -474 -127
-118 -231 -219 -231 -224 0 -5 -70 -123 -155 -263 -85 -140 -155 -261 -155
-270 0 -11 8 -14 32 -9 18 3 80 12 137 20 57 8 110 20 116 27 7 7 42 83 80
168 37 85 72 160 77 167 15 18 408 219 445 227 23 5 33 4 33 -4 0 -6 -16 -72
-36 -146 -20 -73 -34 -140 -31 -147 5 -13 186 -61 196 -52 3 3 51 90 107 193
l101 186 286 131 285 130 129 115 128 116 201 42 200 43 169 -71 c187 -80 295
-120 318 -120 8 0 96 40 196 90 l180 89 19 -27 c11 -15 81 -123 156 -241 111
-172 135 -216 124 -226 -7 -6 -69 -36 -138 -65 -83 -35 -155 -75 -213 -117
-62 -45 -116 -74 -180 -97 -50 -18 -92 -37 -94 -42 -1 -5 8 -22 21 -37 l22
-28 160 25 c87 13 238 34 334 46 96 11 180 22 187 25 6 2 36 46 67 97 l55 93
-10 239 c-11 243 -9 276 14 259 12 -10 533 -291 611 -330 34 -17 41 -28 57
-79 10 -32 19 -69 19 -82 0 -30 -42 -95 -80 -122 -16 -12 -28 -25 -25 -30 2
-4 43 -40 89 -79 l85 -72 46 24 47 24 -1 207 -2 208 -65 122 -64 123 -207 147
c-113 81 -213 151 -222 157 -20 12 -23 10 121 90 87 49 109 65 114 87 3 15 7
32 9 39 3 7 38 0 112 -23 59 -19 113 -32 120 -30 6 3 54 0 107 -5 84 -10 102
-8 167 10 l73 21 51 -29 c27 -16 74 -32 102 -36 44 -6 61 -3 107 18 37 17 62
37 76 59 44 72 10 216 -64 270 -49 35 -54 47 -55 115 -1 37 -11 74 -39 135
-21 45 -51 118 -66 160 -27 74 -32 80 -102 133 -74 55 -104 67 -104 41 0 -8
-4 -26 -10 -40 -9 -25 -10 -25 -51 -11 -49 18 -835 119 -856 110 -9 -3 -21 -1
-27 4 -6 5 -38 11 -71 15 -52 5 -99 -4 -345 -63z m298 4 c1 -16 19 -147 38
-290 19 -143 36 -268 37 -277 1 -9 0 -18 -4 -20 -6 -3 -673 470 -677 481 -3 8
546 140 578 138 20 -2 26 -8 28 -32z m586 -29 c187 -23 341 -47 343 -52 5 -16
-72 -119 -89 -118 -9 1 -163 48 -342 105 -300 96 -384 128 -288 113 20 -3 190
-25 376 -48z m-518 23 c10 -12 80 -73 155 -135 l136 -115 47 -231 c25 -127 45
-233 42 -235 -2 -2 -86 144 -186 324 -101 180 -194 345 -207 365 -12 21 -23
40 -23 43 0 12 18 4 36 -16z m395 -98 c190 -61 351 -111 357 -111 19 0 24 -21
10 -38 -8 -9 -41 -60 -73 -112 -32 -52 -65 -102 -72 -112 -13 -15 -40 5 -277
205 -144 122 -280 237 -301 255 -36 30 -37 33 -15 29 14 -2 181 -54 371 -116z
m-348 -74 c89 -160 87 -136 26 -282 -38 -92 -37 -90 -44 -83 -3 2 -18 106 -35
229 -16 123 -33 236 -36 252 -11 54 13 23 89 -116z m992 107 c19 -29 12 -44
-13 -28 -18 12 -29 54 -14 54 5 0 17 -12 27 -26z m79 -29 c16 -12 17 -17 7
-28 -10 -10 -17 -6 -37 18 -40 50 -26 54 30 10z m-74 -30 c45 -23 45 -23 62
-106 15 -71 17 -104 5 -88 -2 2 -42 52 -90 111 -48 60 -87 111 -87 114 0 10
64 -8 110 -31z m-146 -2 c4 -16 39 -124 77 -241 67 -203 83 -278 44 -202 -10
19 -62 106 -117 194 -54 87 -97 162 -96 165 14 28 71 111 78 111 4 0 11 -12
14 -27z m-1485 -195 c67 -116 120 -216 118 -221 -1 -5 -75 55 -163 134 -87 79
-186 168 -218 196 -33 29 -58 55 -55 57 7 7 151 44 175 45 17 1 43 -38 143
-211z m1620 70 l104 -130 -22 -121 c-22 -117 -27 -135 -34 -126 -2 2 -37 110
-79 239 -41 129 -79 243 -83 253 -18 42 17 7 114 -115z m137 87 c22 -54 16
-63 -17 -27 -24 27 -28 36 -18 48 16 20 18 18 35 -21z m-5013 -22 c-6 -39 -12
-41 -42 -9 l-23 24 29 15 c34 19 42 12 36 -30z m66 13 c23 -24 23 -24 3 -35
-36 -19 -52 -13 -52 17 0 48 15 54 49 18z m3433 -192 c166 -119 309 -225 317
-236 12 -18 12 -22 -1 -29 -8 -4 -110 -76 -227 -160 -117 -83 -214 -150 -216
-148 -2 2 13 72 33 154 l37 150 173 9 c229 12 229 30 0 25 l-173 -4 -127 220
c-120 208 -134 235 -124 235 3 0 141 -97 308 -216z m-624 187 c-9 -24 -154
-240 -161 -241 -11 0 -187 150 -187 159 0 6 307 88 338 90 8 1 12 -3 10 -8z
m250 -178 c109 -98 219 -197 246 -220 48 -42 48 -43 25 -53 -168 -74 -545
-226 -550 -221 -4 3 11 150 32 326 21 176 38 326 39 333 0 6 2 12 5 12 3 0 94
-80 203 -177z m1885 123 c20 -25 37 -49 37 -54 0 -10 -48 -57 -53 -51 -2 2 -9
31 -17 64 -7 33 -15 66 -17 73 -10 26 14 10 50 -32z m-5049 15 c14 -16 15 -20
2 -30 -20 -17 -36 -6 -36 25 0 29 11 31 34 5z m2930 -18 c-3 -16 -20 -160 -38
-321 -18 -161 -37 -297 -42 -302 -8 -8 -323 17 -334 27 -2 2 0 10 5 18 6 8 98
147 205 310 107 162 198 295 202 295 4 0 5 -12 2 -27z m-2710 -163 c61 -143
64 -156 49 -168 -10 -7 -23 -11 -30 -10 -6 2 -48 76 -92 166 l-81 163 32 14
c25 10 36 11 44 2 7 -7 42 -82 78 -167z m-130 -46 c31 -94 56 -177 56 -186 0
-15 -37 -55 -43 -47 -2 2 -30 91 -62 198 -57 187 -59 194 -40 207 10 8 22 11
26 7 4 -5 32 -85 63 -179z m2421 166 c8 -12 -6 -290 -14 -290 -14 0 -335 187
-338 197 -2 6 51 25 119 42 68 18 143 38 168 46 58 17 58 17 65 5z m2186 -126
c15 -71 23 -133 19 -137 -10 -11 -170 29 -187 46 -9 9 2 35 55 119 37 59 71
106 76 105 6 -2 22 -62 37 -133z m27 94 c12 -24 65 -110 116 -193 52 -82 93
-151 91 -153 -1 -2 -43 20 -92 48 l-90 51 -26 129 c-15 71 -30 136 -33 144
-13 34 12 14 34 -26z m-2093 -38 c46 -39 88 -77 95 -85 11 -13 -6 -43 -100
-185 -62 -94 -115 -168 -117 -166 -3 2 0 46 6 98 6 51 14 164 17 251 3 86 8
157 11 157 3 0 43 -32 88 -70z m1839 -165 c-2 -18 -154 -245 -164 -245 -9 0
-24 31 -21 46 0 6 -17 99 -39 207 -22 108 -40 203 -40 212 0 9 53 -29 133 -96
72 -61 131 -117 131 -124z m661 155 c10 -22 16 -43 13 -46 -4 -3 -25 6 -48 21
-40 25 -41 27 -24 46 25 28 39 24 59 -21z m-4986 -97 c55 -113 60 -128 46
-142 -9 -9 -18 -12 -24 -6 -8 10 -91 252 -91 268 0 19 13 -2 69 -120z m3982
-70 c51 -93 103 -185 117 -206 13 -22 22 -41 19 -43 -5 -5 -335 164 -342 175
-2 5 11 44 29 87 19 44 41 96 50 117 8 20 19 37 24 37 5 0 52 -75 103 -167z
m-2038 82 c-5 -141 -15 -275 -21 -275 -7 0 -51 226 -60 303 l-4 38 43 -3 44
-3 -2 -60z m-133 46 c0 -15 -122 -263 -127 -258 -5 6 42 208 57 245 7 16 18
22 40 22 16 0 30 -4 30 -9z m295 -58 c65 -38 117 -71 116 -75 -3 -11 -271
-272 -274 -267 -3 4 7 175 19 337 3 39 9 72 13 72 4 0 61 -30 126 -67z m2874
32 c35 -22 41 -30 41 -60 0 -19 -4 -35 -10 -35 -5 0 -10 3 -10 8 0 4 -20 30
-45 59 -65 74 -59 81 24 28z m-3289 16 c0 -5 -42 -44 -92 -87 -51 -44 -138
-119 -193 -168 -54 -49 -100 -85 -102 -80 -5 15 95 231 128 277 l30 42 102 11
c56 6 108 12 115 12 6 1 12 -2 12 -7z m3274 -86 c55 -69 56 -70 36 -87 -28
-23 -151 -91 -156 -86 -3 4 32 202 42 236 6 21 17 12 78 -63z m-3544 52 c0 -8
-10 -23 -23 -35 -19 -18 -28 -20 -57 -13 -19 5 -47 12 -62 15 -60 14 -31 24
130 44 6 1 12 -4 12 -11z m287 -19 c-3 -7 -23 -85 -44 -173 l-38 -160 -370
-377 c-203 -207 -371 -375 -373 -373 -2 2 50 104 116 227 66 122 133 248 149
279 15 31 47 93 70 137 l43 82 162 2 c122 2 162 6 166 16 3 10 -9 12 -57 6
-33 -3 -67 -4 -75 -1 -11 5 17 49 112 176 112 150 155 199 139 159z m152 -60
c6 -40 22 -125 36 -188 13 -63 21 -118 19 -122 -6 -9 -137 -11 -145 -3 -3 2 5
64 18 137 13 73 25 154 27 180 8 94 29 92 45 -4z m-606 36 c20 -4 37 -10 37
-15 0 -10 -123 -12 -133 -2 -13 12 16 34 37 29 12 -3 38 -9 59 -12z m-128 -24
c-3 -5 -11 -10 -16 -10 -6 0 -7 5 -4 10 3 6 11 10 16 10 6 0 7 -4 4 -10z m505
5 c0 -3 -50 -70 -111 -150 l-110 -145 -60 0 c-33 0 -59 4 -59 10 0 6 3 10 8
10 4 0 77 63 162 139 142 128 170 150 170 136z m166 -17 c-3 -13 -15 -84 -27
-158 -12 -74 -24 -138 -28 -143 -7 -7 -69 9 -84 23 -8 7 -4 18 78 192 46 99
76 140 61 86z m-466 -7 c0 -5 -34 -25 -75 -44 -41 -20 -102 -52 -136 -72 -34
-20 -65 -35 -70 -33 -4 2 16 35 46 73 54 70 55 70 112 76 95 9 123 9 123 0z
m3108 -12 c21 -8 22 -13 22 -124 0 -63 -3 -115 -7 -115 -7 0 -84 235 -83 253
0 8 19 4 68 -14z m-48 -131 c23 -73 46 -138 51 -145 6 -6 6 -14 2 -16 -5 -3
-43 41 -86 99 l-77 104 28 45 c15 25 30 45 33 45 4 0 26 -60 49 -132z m-2079
97 l40 -26 -67 -82 c-37 -45 -71 -86 -76 -91 -19 -23 -17 8 5 85 14 46 28 96
31 112 8 33 16 34 67 2z m-1218 2 c-4 -7 -26 -36 -48 -66 l-40 -52 -3 36 c-4
50 2 62 40 79 43 19 61 20 51 3z m137 -92 c-58 -58 -108 -105 -112 -105 -9 0
-33 78 -26 85 10 10 224 125 233 125 5 0 -37 -47 -95 -105z m3341 89 c4 -2
-10 -48 -32 -101 -21 -54 -39 -104 -39 -110 0 -7 -4 -13 -10 -13 -12 0 -14
223 -3 234 7 7 69 -1 84 -10z m-2385 -139 l-33 -120 -97 -3 c-53 -1 -96 1 -96
5 0 15 255 263 258 251 1 -7 -13 -67 -32 -133z m-891 19 l-45 -99 -47 3 c-26
2 -50 5 -52 7 -2 2 39 50 90 105 52 56 95 97 96 93 2 -5 -17 -54 -42 -109z
m3453 35 c23 -11 42 -25 42 -32 -1 -13 -288 -182 -296 -174 -3 3 2 22 11 43 9
22 32 81 51 132 18 51 36 97 39 103 3 5 29 -5 58 -22 29 -17 71 -39 95 -50z
m-4534 -27 c55 -97 65 -118 47 -108 -5 4 -11 2 -13 -3 -4 -12 -202 146 -206
165 -2 8 4 17 13 21 13 4 40 -18 106 -88 48 -52 88 -89 88 -84 0 6 -33 48 -73
95 -41 46 -72 88 -70 92 3 5 16 8 29 8 20 0 33 -17 79 -98z m4871 74 l30 -25
-52 -53 -53 -53 0 53 c0 39 -4 52 -12 49 -9 -3 -12 -20 -10 -47 5 -72 0 -74
-68 -40 -33 17 -60 34 -60 38 0 9 112 68 124 64 5 -2 15 6 23 18 19 26 41 25
78 -4z m-4641 -114 c8 -13 -94 -146 -104 -135 -15 15 -148 252 -144 256 6 5
241 -110 248 -121z m528 23 c-8 -39 -9 -40 -72 -58 -105 -28 -106 -20 -11 65
94 84 102 83 83 -7z m2773 58 c-4 -10 -22 -88 -42 -173 -19 -85 -37 -161 -39
-169 -4 -12 -28 -13 -141 -8 -75 4 -165 7 -200 7 -38 0 -63 4 -61 10 3 11 469
348 482 349 4 1 5 -7 1 -16z m-1402 -108 l-8 -80 -73 -3 c-46 -2 -73 1 -70 7
1 5 37 51 78 101 83 102 85 102 73 -25z m1621 30 c111 -57 155 -84 153 -95 -5
-19 -127 -190 -135 -190 -6 0 -179 329 -191 362 -5 14 -6 15 173 -77z m-3119
11 c-39 -35 -73 -62 -77 -60 -3 2 -3 16 1 31 5 19 24 36 67 60 32 18 63 33 69
33 5 0 -22 -29 -60 -64z m-800 44 c4 -6 51 -44 106 -86 54 -41 99 -77 99 -79
0 -3 -10 -1 -22 4 -41 16 -248 122 -248 126 0 3 6 14 12 25 14 21 43 27 53 10z
m3088 -172 c-87 -101 -200 -233 -253 -293 -52 -61 -105 -122 -116 -138 -26
-33 -57 -35 -77 -4 -8 12 -83 109 -166 216 -84 106 -150 195 -148 197 5 5 326
-24 337 -31 3 -2 4 -90 2 -195 -3 -137 -1 -190 7 -190 7 0 12 21 12 53 1 28 4
119 8 200 l6 149 260 108 c143 60 266 109 272 109 7 1 -58 -81 -144 -181z
m735 -4 c52 -102 91 -188 88 -191 -6 -7 -220 26 -254 38 -13 5 -21 13 -18 17
2 4 18 68 35 142 17 74 33 145 36 158 3 12 9 22 13 22 4 0 49 -84 100 -186z
m1281 127 c15 -47 14 -91 -3 -91 -11 0 -51 12 -114 35 -10 4 2 22 35 59 52 59
61 59 82 -3z m-828 2 c18 -27 53 -71 76 -100 23 -28 40 -53 37 -56 -3 -2 -44
8 -92 23 l-87 27 3 54 c3 66 10 99 20 99 5 0 24 -21 43 -47z m-1021 25 c0 -13
-67 -266 -73 -274 -4 -8 -25 -8 -72 1 -36 7 -69 15 -72 18 -3 3 5 19 18 35
118 147 199 237 199 220z m944 -22 c-3 -13 -11 -61 -17 -107 l-12 -84 -95 -52
c-52 -28 -96 -50 -98 -48 -2 2 42 67 98 145 56 78 104 149 107 156 9 24 24 15
17 -10z m-3164 -20 c21 -57 22 -57 -89 -87 -106 -29 -131 -30 -95 -5 10 8 48
37 84 65 36 28 71 51 78 51 7 0 17 -11 22 -24z m3828 -10 c29 -15 52 -30 52
-35 0 -8 -102 -61 -116 -61 -2 0 -4 23 -4 50 0 28 -4 50 -10 50 -5 0 -10 -20
-10 -45 0 -26 -5 -45 -11 -45 -21 0 -109 35 -109 43 0 4 14 16 31 25 17 9 40
24 51 32 27 22 64 17 126 -14z m-4166 -27 c-2 -31 3 -51 18 -71 11 -15 20 -30
20 -33 0 -3 -90 -5 -200 -5 -110 0 -200 4 -200 9 0 4 23 38 50 74 l50 66 123
3 c67 2 127 3 132 2 6 -1 9 -21 7 -45z m168 -16 c-1 -5 -23 -25 -49 -45 l-48
-37 -22 23 c-26 28 -21 33 53 51 65 16 66 16 66 8z m4173 -24 c47 -13 63 -29
30 -29 -10 0 -54 -9 -97 -20 -44 -11 -82 -18 -84 -15 -10 10 73 86 88 82 8 -3
36 -11 63 -18z m-3902 1 c10 0 19 -4 19 -8 0 -12 -98 -57 -106 -49 -11 11 37
69 53 63 8 -3 23 -6 34 -6z m3577 -26 c28 -10 52 -21 52 -24 0 -7 -90 -30
-115 -30 -7 0 -15 15 -18 33 -5 37 0 50 16 43 7 -2 36 -13 65 -22z m-3050 -5
c12 -5 22 -11 22 -15 0 -3 -19 -38 -41 -77 -23 -40 -60 -103 -81 -140 -22 -38
-42 -66 -45 -64 -4 5 56 256 72 305 5 13 17 12 73 -9z m2953 -17 c4 -18 4 -34
0 -35 -12 -6 -131 5 -131 11 0 11 94 61 110 59 8 -1 17 -17 21 -35z m269 20
c0 -5 -11 -19 -25 -32 -20 -19 -28 -21 -38 -11 -9 10 -7 16 13 31 26 20 50 26
50 12z m-3710 -7 c0 -2 -73 -107 -163 -232 -90 -125 -177 -248 -195 -273 -91
-129 -82 -111 138 310 l65 125 70 37 c68 36 85 43 85 33z m345 -177 c-20 -79
-41 -160 -46 -180 -8 -32 -19 -42 -87 -79 -42 -23 -181 -100 -309 -171 -128
-70 -236 -128 -240 -128 -4 0 154 162 352 360 198 198 361 356 363 350 2 -5
-13 -74 -33 -152z m695 155 c0 -9 -449 -178 -455 -171 -5 5 -35 144 -35 164 0
12 39 14 245 14 135 0 245 -3 245 -7z m2869 -9 c-14 -17 -70 -43 -81 -37 -12
7 4 34 26 43 12 5 32 9 45 9 20 1 22 -1 10 -15z m-2765 -21 c50 -56 314 -398
307 -401 -3 -1 -78 29 -166 67 l-160 68 4 132 c2 92 0 131 -8 131 -7 0 -11
-25 -12 -67 -2 -108 -13 -188 -26 -186 -6 1 -67 14 -134 28 -68 15 -164 34
-213 44 -50 9 -91 22 -93 27 -2 5 45 27 105 48 59 22 161 61 227 87 66 26 125
48 132 48 6 1 23 -11 37 -26z m2662 6 c12 -20 -19 -36 -63 -32 -24 3 -43 9
-43 13 0 5 19 13 43 18 58 13 55 13 63 1z m-3272 -16 c13 -49 27 -134 22 -142
-9 -15 -207 -153 -212 -148 -2 2 20 44 49 93 29 49 69 117 88 151 36 66 45 74
53 46z m1424 -82 c34 -5 67 -13 72 -16 9 -5 -53 -145 -64 -145 -6 0 -106 166
-106 175 0 3 8 4 18 1 9 -3 45 -10 80 -15z m-2328 -292 c-82 -156 -152 -288
-154 -294 -6 -17 -23 7 -50 74 l-25 63 157 192 c87 105 171 208 188 228 16 21
30 34 32 30 1 -5 -65 -137 -148 -293z m2255 219 c28 -46 51 -88 53 -95 4 -15
-13 -19 -163 -33 -66 -7 -122 -14 -124 -16 -15 -14 23 -16 115 -5 59 7 109 9
113 5 3 -4 0 -9 -8 -12 -7 -2 -67 -31 -133 -63 -65 -33 -124 -59 -129 -59 -16
0 0 101 19 123 8 9 12 17 8 17 -4 0 36 50 89 110 53 61 100 110 103 110 4 0
30 -37 57 -82z m547 35 c4 -2 5 -9 3 -16 -2 -7 -6 -45 -10 -84 -5 -60 -4 -73
8 -73 12 0 16 -46 23 -277 5 -153 8 -282 9 -288 0 -5 -18 -10 -40 -10 -34 0
-40 3 -43 23 -2 12 -10 22 -17 22 -8 0 -17 10 -21 23 -3 12 -64 171 -135 353
-71 182 -129 335 -129 339 0 7 339 -4 352 -12z m-2531 -17 c-5 -12 -32 -63
-59 -112 -27 -49 -89 -165 -137 -259 -48 -93 -92 -176 -98 -182 -9 -13 -117
-19 -117 -7 0 3 60 89 133 192 74 103 166 233 206 290 39 56 74 102 76 102 3
0 0 -11 -4 -24z m2276 -286 c134 -344 128 -330 110 -310 -26 28 -297 462 -297
476 0 25 61 137 69 128 5 -5 58 -137 118 -294z m857 24 c12 -3 32 -14 46 -25
l25 -21 -30 6 c-16 3 -159 27 -317 53 -277 46 -288 49 -288 71 0 12 -4 22 -9
22 -7 0 -5 128 4 156 1 5 126 -50 276 -123 150 -73 282 -136 293 -139z m-368
252 c85 -15 79 -12 354 -209 52 -37 -15 -9 -249 103 -225 108 -280 140 -213
126 15 -4 63 -13 108 -20z m-1833 -68 c114 -23 207 -45 207 -48 0 -3 -51 -15
-113 -27 -61 -12 -188 -38 -281 -58 -94 -20 -175 -34 -182 -33 -10 2 42 100
110 206 5 8 17 11 30 8 11 -3 114 -25 229 -48z m-360 -88 l-58 -93 -290 -113
c-159 -63 -294 -114 -298 -114 -24 0 20 27 185 116 100 55 207 113 237 129 59
32 157 96 231 152 24 19 46 30 48 25 1 -5 -23 -51 -55 -102z m1112 -87 c-8
-48 -17 -56 -40 -39 -18 13 -18 14 6 44 32 41 43 40 34 -5z m1240 -28 c142
-25 267 -42 277 -39 10 3 18 1 18 -5 0 -6 13 -11 29 -11 17 0 32 -4 35 -9 7
-10 -32 -203 -43 -214 -4 -4 -142 65 -307 153 -164 88 -302 160 -306 160 -5 0
-8 5 -8 10 0 6 10 8 23 5 12 -3 139 -25 282 -50z m-2240 -21 c-82 -76 -113
-99 -122 -90 -13 12 -20 107 -9 114 13 8 152 40 181 41 14 0 1 -18 -50 -65z
m-161 4 c9 -29 15 -108 8 -107 -4 0 -24 20 -45 44 l-38 44 28 15 c35 19 43 19
47 4z m-39 -88 l49 -49 -80 -36 c-43 -20 -147 -68 -231 -107 -84 -38 -157 -68
-162 -66 -8 2 354 304 369 307 3 1 28 -21 55 -49z m-126 17 c-2 -2 -97 -78
-210 -169 l-206 -166 -124 -6 c-68 -4 -136 -9 -151 -12 -42 -8 -33 11 11 24
21 7 179 84 352 171 266 136 351 176 328 158z m2999 -96 c23 -43 42 -84 42
-90 0 -13 -116 -16 -124 -3 -6 10 25 172 33 172 3 0 25 -35 49 -79z m-3128 64
c0 -8 -338 -175 -354 -175 -8 0 -19 -6 -23 -13 -6 -11 -91 -53 -211 -104 -7
-3 -20 12 -32 38 -32 72 -34 70 95 66 63 -1 115 1 115 5 0 4 -9 8 -20 8 -39 0
-19 16 48 38 37 13 132 49 212 81 140 57 170 67 170 56z m-711 -92 c22 -54 26
-74 18 -82 -18 -14 -409 -182 -418 -179 -5 2 47 53 114 115 67 62 149 139 182
172 32 34 63 57 67 53 4 -4 20 -39 37 -79z m3883 -98 c3 -3 -5 -47 -17 -98
-13 -51 -26 -104 -29 -119 -10 -42 -21 -34 -36 25 -7 28 -23 82 -35 119 -12
37 -20 70 -17 73 7 7 127 7 134 0z m-3817 -57 c12 -29 20 -56 17 -60 -11 -10
-431 -228 -441 -228 -11 0 -91 110 -91 125 1 9 460 213 483 214 5 1 19 -23 32
-51z m2834 -37 c36 -50 25 -61 -60 -61 -42 0 -49 -3 -49 -20 0 -11 -4 -20 -10
-20 -5 0 -10 7 -10 16 0 15 -8 16 -60 11 -33 -4 -60 -3 -60 1 1 6 201 97 222
101 4 0 16 -12 27 -28z m1003 -131 c2 -72 0 -130 -3 -130 -3 0 -18 13 -33 29
l-28 29 24 101 c12 56 26 101 30 101 4 0 8 -59 10 -130z m-3509 84 c3 -3 -18
-18 -46 -33 -29 -15 -62 -34 -74 -41 -19 -13 -25 -11 -61 21 -22 19 -41 37
-41 41 -1 4 36 9 82 11 45 1 94 4 108 5 14 1 28 -1 32 -4z m-195 -67 l42 -43
-75 -74 c-41 -41 -77 -72 -79 -69 -7 6 56 229 64 229 3 0 25 -19 48 -43z m189
1 c-13 -24 -46 -83 -73 -133 l-49 -90 -3 79 c-2 44 -1 85 2 93 6 13 124 93
139 93 5 0 -2 -19 -16 -42z m2643 37 c0 -10 -55 -105 -62 -105 -7 0 -15 99 -9
106 6 6 71 5 71 -1z m-90 -84 l0 -67 -172 -22 c-94 -12 -174 -19 -177 -16 -3
4 -1 8 4 11 6 2 82 41 170 87 88 46 163 82 167 80 5 -3 8 -36 8 -73z m-190 61
c0 -5 -24 -14 -52 -21 -29 -8 -88 -25 -131 -38 -44 -13 -81 -22 -84 -20 -2 3
17 20 43 38 32 22 64 34 103 39 81 11 121 11 121 2z m1040 -28 c19 -48 14 -57
-20 -39 -34 18 -34 18 -18 45 17 27 27 25 38 -6z m-980 12 c0 -7 -292 -156
-305 -156 -15 0 -60 48 -53 56 6 6 325 101 346 103 6 1 12 -1 12 -3z m-3226
-102 l37 -56 -52 -119 c-29 -65 -57 -119 -62 -119 -6 0 -7 20 -4 48 15 113 19
212 10 212 -5 0 -17 -77 -26 -171 -9 -94 -22 -177 -28 -185 -10 -12 -99 -21
-99 -10 0 2 24 73 54 157 30 85 60 173 67 197 10 34 16 41 31 36 15 -4 18 0
18 30 0 20 4 36 9 36 4 0 25 -25 45 -56z m4168 5 c28 -55 21 -63 -22 -29 -41
32 -50 54 -27 63 21 9 31 2 49 -34z m50 4 c17 -16 26 -83 11 -83 -5 0 -18 23
-30 50 -22 51 -15 64 19 33z m-3560 -60 c1 -77 0 -105 -7 -111 -6 -6 -114 17
-137 29 -15 8 -7 20 55 79 39 38 75 70 80 70 4 0 8 -30 9 -67z m2195 25 c13
-12 23 -25 23 -30 0 -9 -94 -11 -127 -2 -13 4 -23 10 -23 13 0 6 69 33 99 40
3 1 15 -9 28 -21z m1439 -63 c-26 -20 -36 -10 -36 33 l0 37 28 -28 c26 -27 26
-29 8 -42z m-4416 33 c0 -2 -29 -82 -64 -178 l-64 -175 -36 -8 c-74 -18 -71
-9 42 182 89 149 122 198 122 179z m2920 -27 c0 -9 -98 -23 -111 -15 -24 14
-3 24 51 24 33 0 60 -4 60 -9z"></path>
<path d="M4632 3098 c-25 -246 -26 -258 -14 -258 4 0 18 98 30 218 24 238 26
262 14 262 -4 0 -18 -100 -30 -222z"></path>
</g>
</svg>