<svg xmlns="http://www.w3.org/2000/svg" xmlns:xlink="http://www.w3.org/1999/xlink" viewBox="0 0 117.537 116.756">
  <defs>
    <style>
      .cls-1 {
        fill: url(#linear-gradient);
      }
    </style>
    <linearGradient id="linear-gradient" x1="0.5" x2="0.5" y2="1" gradientUnits="objectBoundingBox">
      <stop offset="0" stop-color="#2b86c5"/>
      <stop offset="0.515" stop-color="#784ba0"/>
      <stop offset="1" stop-color="#ff3cac"/>
    </linearGradient>
  </defs>
  <g id="Group_8" data-name="Group 8" transform="translate(75.76 -47.963) rotate(51)">
    <path id="Path_504" data-name="Path 504" class="cls-1" d="M79.984,53.081a9.032,9.032,0,0,1-4.846,5.149L12.75,85.184a9.005,9.005,0,0,1-9.086-1.211A8.8,8.8,0,0,1,.03,75.8L7.9,7.955A8.617,8.617,0,0,1,13.356.687a9.7,9.7,0,0,1,9.086.909L76.956,42.178a9.026,9.026,0,0,1,3.634,8.48A7.128,7.128,0,0,1,79.984,53.081ZM10.811,75.147l58.041-26.6L17.787,9.339Z" transform="translate(31.639 37.202)"/>
  </g>
</svg>
