<svg xmlns="http://www.w3.org/2000/svg" xmlns:xlink="http://www.w3.org/1999/xlink" viewBox="0 0 148.397 158.115">
  <defs>
    <style>
      .cls-1 {
        fill: url(#linear-gradient);
      }
    </style>
    <linearGradient id="linear-gradient" x1="75.75" y1="-15.259" x2="78.191" y2="-14.002" gradientUnits="objectBoundingBox">
      <stop offset="0" stop-color="#8c4fdb"/>
      <stop offset="1" stop-color="#ff454b"/>
    </linearGradient>
  </defs>
  <path id="Path_504" data-name="Path 504" class="cls-1" d="M147.184,97.7a16.619,16.619,0,0,1-8.916,9.473l-114.795,49.6a16.569,16.569,0,0,1-16.718-2.229C1.74,151.2-.489,145.069.069,139.5L14.557,14.672A15.855,15.855,0,0,1,24.588,1.3,17.851,17.851,0,0,1,41.305,2.969L141.611,77.641c5.015,3.344,7.244,9.473,6.687,15.6A13.115,13.115,0,0,1,147.184,97.7ZM36.847,114.42,98.7,87.672,44.649,47.55Z" transform="translate(0.015 0.04)"/>
</svg>
