<svg xmlns="http://www.w3.org/2000/svg" xmlns:xlink="http://www.w3.org/1999/xlink" viewBox="0 0 667 455"><defs><style>.a{fill:#fff;}.b{clip-path:url(#a);}.c{fill:url(#b);}.d{clip-path:url(#c);}.e{fill:url(#d);}.f{fill:#dd70b2;}.g{fill:#ca52a3;}.h{fill:#b43992;}.i{fill:#98217f;}.j{fill:#e1c235;}.k{fill:#c59831;}.l{fill:#771652;}.m{fill:#971061;}.n{fill:none;}.o{fill:#f0f1f1;}.p{fill:#d2d3d3;}.q{opacity:0.21;}.r{fill:#30213a;}</style><clipPath id="a"><rect class="a" width="667" height="455" transform="translate(0 4945)"/></clipPath><linearGradient id="b" x1="0.448" y1="0.783" x2="0.613" y2="-0.33" gradientUnits="objectBoundingBox"><stop offset="0" stop-color="#1d1b4e"/><stop offset="0.999" stop-color="#d36a7e"/></linearGradient><clipPath id="c"><path d="M224.78,25.23c34.345-4.5,73.007-6.381,99.845,15.765,23.272,19.331,31.342,52.363,54.427,71.693,25.337,21.4,61.746,21.02,94.778,24.586,36.41,3.941,75.447,16.14,95.153,47.108,12.95,20.457,15.765,46.732,32.469,64.186,27.026,28.152,74.133,18.58,110.168,33.407,38.662,15.953,60.808,64,47.671,103.787-7.695,23.085-24.961,41.853-43.542,57.43a315.936,315.936,0,0,1-128.185,64.937C528.445,522.58,466.51,519.577,405.7,518.451c-73.946-1.126-148.454.938-221.086-12.95-37.161-7.132-74.321-18.58-104.725-41.1-40.726-30.029-65.5-76.573-86.332-122.555-8.258-18.393-16.328-37.724-15.953-57.805.375-36.41,26.838-66.438,44.1-98.532a213.406,213.406,0,0,0,23.835-75.635c1.877-15.2-2.815-37.724,11.073-48.234C75.011,47.564,113.3,45.312,135.632,40.62,165.1,34.239,194.939,29.171,224.78,25.23Z" transform="translate(22.407 -22.383)"/></clipPath><linearGradient id="d" x1="0.46" y1="0.769" x2="0.622" y2="-0.322" xlink:href="#b"/></defs><g class="b" transform="translate(0 -4945)"><g transform="translate(-201.593 4944.969)"><g transform="translate(-22.407 0.258)"><g transform="translate(0)"><path class="c" d="M669.436,285.914c-36.034-14.827-83.142-5.255-110.168-33.407-16.7-17.454-19.706-43.729-32.469-64.186-19.519-30.967-58.744-43.166-95.153-47.108-33.032-3.566-69.441-3.378-94.778-24.586-23.085-19.519-31.342-52.55-54.427-71.693-26.65-22.146-65.312-20.457-99.845-15.765-30.029,3.941-59.682,9.009-89.335,15.2-10.135,2.252-23.648,3.754-37.16,6.381V455.576H663.242c3.566-2.627,6.944-5.443,10.322-8.258,18.58-15.765,35.847-34.345,43.542-57.43C730.244,349.913,708.1,301.867,669.436,285.914Z" transform="translate(91.241 22.522)"/><g transform="translate(0 41.524)"><g class="d"><rect class="e" width="889.6" height="530.382" transform="translate(120.878 -101.128)"/></g></g><circle class="f" cx="16.891" cy="16.891" r="16.891" transform="translate(122.493 2.907) rotate(-4.937)"/><path class="f" d="M456.032,230.26A23.366,23.366,0,1,1,432.76,206.8,23.309,23.309,0,0,1,456.032,230.26Z" transform="translate(400.924 180.837)"/><path class="f" d="M769.339,436.777a79,79,0,0,0-70.38-86.708,77.323,77.323,0,0,0-16.14,0,37.945,37.945,0,0,0-67.189-14.264,57.059,57.059,0,0,0-39.6,15.2,21.99,21.99,0,0,0-37.724,10.7,30.408,30.408,0,0,0-18.393-8.821,30.768,30.768,0,0,0-20.457,5.067,37.968,37.968,0,0,0-66.063,3.378,49.192,49.192,0,0,0-60.057-2.815,21.845,21.845,0,0,0-40.914.375,38.147,38.147,0,0,0-24.586-12.95,38.7,38.7,0,0,0-18.58,2.628A37.912,37.912,0,0,0,244.4,326.8a79.013,79.013,0,0,0-41.289-36.222,24.12,24.12,0,0,0,2.815-9.009A24.86,24.86,0,0,0,192.038,256.6a36.672,36.672,0,0,0,13.325-25.149,37.85,37.85,0,0,0-15.014-34.345,22.026,22.026,0,0,0,20.269-19.519,21.592,21.592,0,0,0-9.384-20.269,21.842,21.842,0,0,0-11.824-38.474,23.686,23.686,0,0,0-7.319.563,39.716,39.716,0,0,0,4.317-14.076,38.574,38.574,0,0,0-25.524-40.351,29.5,29.5,0,0,0,.751-4.317,30.571,30.571,0,0,0-60.808-6.381,26.935,26.935,0,0,0,.751,10.322L8.3,90.7,49.026,469.621l648.807,60.62-2.628-22.709A79.135,79.135,0,0,0,769.339,436.777Z" transform="translate(49.33 23.116)"/><g transform="translate(87.76 243.919)"><rect class="g" width="21.583" height="385.118" transform="matrix(0.74, 0.673, -0.673, 0.74, 272.161, 11.876)"/><rect class="g" width="9.759" height="385.118" transform="matrix(0.74, 0.673, -0.673, 0.74, 294.036, 31.84)"/><rect class="g" width="9.759" height="385.118" transform="matrix(0.74, 0.673, -0.673, 0.74, 259.184, 0)"/></g><path class="g" d="M817.883,432.4a33.706,33.706,0,0,0-32.656-35.1,35.153,35.153,0,0,0-20.645,6.006,65.291,65.291,0,0,0-42.04-17.079,66.549,66.549,0,0,0-54.427,25.149,65.768,65.768,0,0,0-37.724-13.513c-2.252,0-4.692,0-6.944.188a19.51,19.51,0,0,0-35.284-8.633,33.719,33.719,0,0,0-23.272-10.51,33.31,33.31,0,0,0-21.583,6.757,33.3,33.3,0,0,0-21.02-8.258,34.04,34.04,0,0,0-34.908,30.216l-2.252-1.126a34.775,34.775,0,0,0-24.586-.751,23.436,23.436,0,0,0-22.522-21.02,24.369,24.369,0,0,0-16.891,6.193,34.485,34.485,0,0,0-20.269-7.695A33.863,33.863,0,0,0,368.578,403.5a38.762,38.762,0,0,0-16.14-4.129,37.264,37.264,0,0,0-12.95,1.689,55.581,55.581,0,0,0-50.861-38.662,53.911,53.911,0,0,0-24.586,4.88,18.63,18.63,0,0,0-17.83-17.079,16.144,16.144,0,0,0-3,.188,25.026,25.026,0,0,0-21.583-14.076,31.065,31.065,0,0,0-6.006.563,34.161,34.161,0,0,0-18.768-26.838,34.008,34.008,0,0,0-3.191-29.841,13.376,13.376,0,0,0,4.317-9.384,13.587,13.587,0,0,0-9.759-13.513,23.387,23.387,0,0,0-4.5-35.847,34.377,34.377,0,0,0,8.258-21.02,33.843,33.843,0,0,0-17.83-31.155,18.732,18.732,0,0,0,4.88-12.2A19.641,19.641,0,0,0,160.254,136.8h-1.314a42.515,42.515,0,0,0,1.689-9.759,38.115,38.115,0,0,0-23.272-36.6,78.248,78.248,0,0,0,1.5-11.824,66.121,66.121,0,0,0-63.811-68.5C38.826,8.806,8.234,37.521,6.92,73.931a66.121,66.121,0,0,0,63.811,68.5,62.547,62.547,0,0,0,10.322-.375L61.91,380.974l164.97,162.343,548.587-11.636,12.575-66.814A33.86,33.86,0,0,0,817.883,432.4Z" transform="translate(48.082 8.351)"/><path class="h" d="M659.246,433.839a68.044,68.044,0,0,0-59.119-76.01,70.634,70.634,0,0,0-14.076-.375,32.766,32.766,0,0,0-27.964-25.712,32.436,32.436,0,0,0-29.653,12.2A50.725,50.725,0,0,0,493.9,356.328a19.9,19.9,0,0,0-11.824-6.381,18.849,18.849,0,0,0-20.832,14.827,26.986,26.986,0,0,0-15.765-7.883,26.137,26.137,0,0,0-17.642,4.129,32.6,32.6,0,0,0-56.867,1.689,43.082,43.082,0,0,0-22.9-10.51,41.971,41.971,0,0,0-28.715,6.756,18.83,18.83,0,0,0-35.284-.563,31.389,31.389,0,0,0-21.02-11.448,30.4,30.4,0,0,0-15.953,2.064,32.609,32.609,0,0,0-26.275-20.269,32,32,0,0,0-12.011.751A68.583,68.583,0,0,0,173.907,297.4a20.789,20.789,0,0,0,2.628-7.695A21.442,21.442,0,0,0,164.9,267.931a32.576,32.576,0,0,0-.375-51.236,19.02,19.02,0,0,0,17.83-16.516,18.5,18.5,0,0,0-7.695-17.642A19.2,19.2,0,0,0,181.6,170.15a18.807,18.807,0,0,0-16.328-21.02,18.048,18.048,0,0,0-6.381.375,32.205,32.205,0,0,0,3.941-12.2,33.222,33.222,0,0,0-21.4-35.284,22.141,22.141,0,0,0,.751-3.754A26.386,26.386,0,0,0,89.827,91.7a29.078,29.078,0,0,0,.375,9.009L9.5,121.729l28.152,327.5,558.346,64-1.877-19.519A68.621,68.621,0,0,0,659.246,433.839Z" transform="translate(50.382 59.648)"/><path class="i" d="M644.755,457.257a28.363,28.363,0,0,0-24.211-31.905A27.1,27.1,0,0,0,602.9,428.73a55.1,55.1,0,0,0-80.7-1.126,54.215,54.215,0,0,0-30.216-14.264c-1.877-.188-3.941-.375-5.818-.563A16.1,16.1,0,0,0,472.09,397.2a16.477,16.477,0,0,0-14.639,5.63,28.448,28.448,0,0,0-18.58-10.7,27.826,27.826,0,0,0-18.393,3.754,28.828,28.828,0,0,0-16.7-8.633,28.329,28.329,0,0,0-31.53,22.146l-1.689-1.126a27.571,27.571,0,0,0-20.269-2.627A19.581,19.581,0,0,0,333.4,386.314a19.27,19.27,0,0,0-14.451,3.754A29.439,29.439,0,0,0,302.8,382a28.053,28.053,0,0,0-28.527,14.264,33.747,33.747,0,0,0-12.95-4.88,30.216,30.216,0,0,0-10.885.375A46.153,46.153,0,0,0,211.4,355.535a47.978,47.978,0,0,0-20.832,1.877,15.443,15.443,0,0,0-13.513-15.577,10.7,10.7,0,0,0-2.44-.188,21.117,21.117,0,0,0-16.891-13.513,22.873,22.873,0,0,0-5.067,0A28.38,28.38,0,0,0,139.335,304.3a28.407,28.407,0,0,0-.188-24.961,10.959,10.959,0,0,0,4.317-7.507,11.221,11.221,0,0,0-6.944-12.011,18.768,18.768,0,0,0,6.569-12.2,19.845,19.845,0,0,0-7.507-18.2,28.828,28.828,0,0,0,8.633-16.7,28.142,28.142,0,0,0-12.2-27.214,16.343,16.343,0,0,0-8.821-28.152h-1.126a28.748,28.748,0,0,0,2.064-7.883A31.843,31.843,0,0,0,107.8,117.182a82.037,82.037,0,0,0,2.252-9.759A55.2,55.2,0,0,0,62.762,45.3C32.546,41.547,4.581,62.755.64,92.972a55.2,55.2,0,0,0,47.3,62.122,68.9,68.9,0,0,0,8.633.563L21.1,352.532,144.778,500.986,601.4,536.458l15.953-54.427A28.7,28.7,0,0,0,644.755,457.257Z" transform="translate(42.163 38.858)"/><g transform="translate(267.456 20.724)"><g transform="translate(55.17 194.248)"><path class="j" d="M176.9,159.929a106.644,106.644,0,0,0-7.695-14.451c-3-4.88-6.381-10.135-6.944-15.577l-11.824,9.759c-.188,0-.188.188-.375.375-3.191,3.378,7.319,18.2,23.46,32.844l4.5,3.941a15.73,15.73,0,0,0,1.5-5.63C179.908,167.248,178.406,163.495,176.9,159.929Z" transform="translate(-149.496 -101.56)"/><path class="k" d="M202.657,206.575c.188-.188.188-.188.188-.375l33.782-49.923L191.021,114.8,156.3,143.327c.563,5.443,3.941,10.7,6.944,15.577a152.8,152.8,0,0,1,7.695,14.451c1.5,3.566,3,7.319,2.815,11.261a17.771,17.771,0,0,1-1.5,5.63C186.516,202.446,199.842,209.578,202.657,206.575Z" transform="translate(-143.53 -114.8)"/></g><g transform="translate(0 84.674)"><path class="l" d="M266.49,63c-20.645,25.337-42.228,49.735-68.691,68.691-10.51,7.507-21.958,14.264-34.345,18.017a68.37,68.37,0,0,1-26.838,2.815L120.1,171.854h0c13.888,12.574,33.407,14.827,47.483,5.255l128.56-87.271Z" transform="translate(-120.1 -50.644)"/><path class="m" d="M155.826,155.293c12.387-3.754,23.835-10.322,34.345-18.017,26.463-18.956,48.046-43.354,68.691-68.691L256.61,66.52c-15.39-14.076-38.287-13.325-51.049,1.5L128.8,157.92A65.547,65.547,0,0,0,155.826,155.293Z" transform="translate(-112.472 -56.416)"/></g><g transform="translate(132.211 155.961)"><path class="m" d="M270.222,182.609,310.2,144.886A37.951,37.951,0,0,0,298.187,123.3L266.469,94.4,194.4,225.775c11.448-.563,22.709-4.129,32.844-9.384C243.2,207.946,256.9,195.184,270.222,182.609Z" transform="translate(-187.165 -94.4)"/><path class="l" d="M313.39,121.3l-39.976,37.724c-13.325,12.574-26.838,25.337-43.166,33.97-10.135,5.443-21.583,9.009-32.844,9.384l-2.628,4.692c-8.258,14.827-4.129,34.345,9.759,46.92L304.569,150.766A33.261,33.261,0,0,0,313.39,121.3Z" transform="translate(-190.545 -70.814)"/></g><path class="n" d="M194.1,148a46.59,46.59,0,0,0,6.944,2.627C198.98,149.877,196.54,149.126,194.1,148Z" transform="translate(-55.217 108.558)"/><path class="n" d="M186.9,143.8c1.877,1.314,3.754,2.44,5.63,3.566A46.722,46.722,0,0,1,186.9,143.8Z" transform="translate(-61.53 104.875)"/><path class="n" d="M189.9,145.7c1.877,1.126,3.566,2.065,5.443,3C193.466,147.764,191.777,146.826,189.9,145.7Z" transform="translate(-58.9 106.541)"/><path class="j" d="M184.017,144c-9.947-11.073-16.7-21.583-18.2-28.9l-7.507,9.947c-2.815,3.566,0,11.636,6.944,21.208a38.76,38.76,0,0,1,9.2-2.252Z" transform="translate(-87.55 79.711)"/><path class="k" d="M222.683,163.344c-.751-.375-1.689-.751-2.627-1.314-1.689-.938-3.566-1.877-5.443-3s-3.754-2.252-5.63-3.566a161.939,161.939,0,0,1-17.83-14.076A148.8,148.8,0,0,1,180.268,130.5c-3.191,0-6.381,0-9.572.188a36.656,36.656,0,0,0-9.2,2.252,131.62,131.62,0,0,0,18.768,20.645c18.768,17.079,38.662,26.838,44.292,21.583l9.2-8.446a29.138,29.138,0,0,1-3.941-.751A67,67,0,0,1,222.683,163.344Z" transform="translate(-83.801 93.214)"/><path class="o" d="M193.042,214c8.821-1.877,16.14-7.695,22.9-13.513A969.887,969.887,0,0,0,338.119,79.055c-2.628-2.064-5.255-4.317-7.695-6.569-13.888-12.575-24.211-26.65-29.841-38.287-30.967,19.519-57.055,43.166-76.573,69.254L161.7,186.22c1.5,7.319,8.258,17.83,18.2,28.9C184.409,214.935,188.914,214.935,193.042,214Z" transform="translate(-83.625 8.779)"/><path class="p" d="M362.945,77.619A125.811,125.811,0,0,1,329.726,58.1,995.57,995.57,0,0,1,207.547,179.528c-6.944,5.818-14.264,11.448-22.9,13.513a60.215,60.215,0,0,1-12.95.938c3.378,3.566,6.944,7.319,10.885,10.885a161.94,161.94,0,0,0,17.83,14.076c1.877,1.314,3.754,2.44,5.63,3.566s3.566,2.065,5.443,3c.938.375,1.689.938,2.628,1.314a46.592,46.592,0,0,0,6.944,2.627A17.912,17.912,0,0,0,225,230.2l76.573-69.817C325.222,138.427,346.429,110.275,362.945,77.619Z" transform="translate(-74.857 29.734)"/><path class="j" d="M273.424,99.046A962.544,962.544,0,0,0,339.3,11.4,337.812,337.812,0,0,0,235.7,54.191c5.63,11.824,15.953,25.712,29.841,38.287C268.356,94.73,270.8,96.982,273.424,99.046Z" transform="translate(-18.743 -11.212)"/><path class="k" d="M289.119,118.653A336.547,336.547,0,0,0,321.963,11.3h-.188A998.443,998.443,0,0,1,255.9,98.946C267.348,108.33,278.985,114.9,289.119,118.653Z" transform="translate(-1.032 -11.3)"/><path class="q" d="M286.961,102.949a41,41,0,0,0-13.325-26.463A41.622,41.622,0,0,0,214.7,79.3a42.679,42.679,0,0,0-10.51,22.146,41.639,41.639,0,0,0,72.069,33.97A41.342,41.342,0,0,0,286.961,102.949Z" transform="translate(-46.731 36.309)"/><g transform="translate(158.737 91.022)"><path class="j" d="M250.881,118.545c14.264-2.252,27.214-10.51,36.785-21.4a41,41,0,0,0-13.325-26.463A41.622,41.622,0,0,0,215.41,73.5,42.68,42.68,0,0,0,204.9,95.648a51.455,51.455,0,0,0,5.443,8.633C219.727,115.729,236.055,120.8,250.881,118.545Z" transform="translate(-204.485 -59.799)"/><path class="k" d="M287.861,80.389c-9.572,10.885-22.522,19.331-36.785,21.4-14.827,2.252-31.155-2.815-40.539-14.451a51.45,51.45,0,0,1-5.443-8.633,41.694,41.694,0,1,0,82.767,1.689Z" transform="translate(-204.679 -43.227)"/></g><g transform="translate(167.981 100.066)"><path class="a" d="M268.142,72.488,213.9,72.3a24.476,24.476,0,0,0-3,5.818l60.433.188C270.394,76.429,269.268,74.364,268.142,72.488Z" transform="translate(-208.469 -57.881)"/><path class="r" d="M272.2,75.588,211.764,75.4a27.644,27.644,0,0,0-2.064,8.633l64.562.188A36.1,36.1,0,0,0,272.2,75.588Z" transform="translate(-209.521 -55.163)"/><path class="r" d="M261.384,73.03A32.611,32.611,0,0,0,215.4,75.282c-1.126,1.314-2.064,2.628-3,3.941l54.239.188A24.474,24.474,0,0,0,261.384,73.03Z" transform="translate(-207.153 -64.617)"/><path class="a" d="M253.61,96.288,217.2,96.1A31.918,31.918,0,0,0,253.61,96.288Z" transform="translate(-202.945 -37.014)"/><path class="r" d="M264.864,97.709a34.246,34.246,0,0,0,5.818-8.821L211,88.7a31.255,31.255,0,0,0,8.07,11.261,26.154,26.154,0,0,0,3.566,2.815l36.41.188A37.77,37.77,0,0,0,264.864,97.709Z" transform="translate(-208.381 -43.502)"/><path class="a" d="M274.345,80.188,209.784,80a32.832,32.832,0,0,0,2.44,16.328l59.682.188A32.833,32.833,0,0,0,274.345,80.188Z" transform="translate(-209.605 -51.13)"/></g></g><circle class="f" cx="13.888" cy="13.888" r="13.888" transform="translate(777.557 345.257) rotate(-73.19)"/><path class="f" d="M327.509,176.8a4.5,4.5,0,1,1-4.5-4.5A4.567,4.567,0,0,1,327.509,176.8Z" transform="translate(321.311 150.587)"/><path class="f" d="M126.851,64.119a7.226,7.226,0,1,1-7.132-7.319A7.171,7.171,0,0,1,126.851,64.119Z" transform="translate(140.604 49.318)"/><path class="f" d="M96.4,14.948A11.448,11.448,0,1,1,84.948,3.5,11.494,11.494,0,0,1,96.4,14.948Z" transform="translate(106.497 2.585)"/><path class="g" d="M296.7,193.33A16.8,16.8,0,1,1,279.43,177,16.792,16.792,0,0,1,296.7,193.33Z" transform="translate(272.735 154.706)"/><circle class="g" cx="15.202" cy="15.202" r="15.202" transform="matrix(0.668, -0.744, 0.744, 0.668, 847.899, 447.005)"/><path class="g" d="M145.768,162.595a7.885,7.885,0,1,1-8.07-7.695A7.935,7.935,0,0,1,145.768,162.595Z" transform="translate(156.033 135.331)"/><circle class="g" cx="4.504" cy="4.504" r="4.504" transform="translate(403.711 335.837)"/><circle class="g" cx="4.504" cy="4.504" r="4.504" transform="translate(283.596 253.446)"/><path class="i" d="M93.888,56.714A12.3,12.3,0,1,1,81.314,44.7,12.221,12.221,0,0,1,93.888,56.714Z" transform="translate(102.812 38.706)"/><circle class="i" cx="5.067" cy="5.067" r="5.067" transform="translate(200.642 208.403)"/><path class="i" d="M329.488,228.514A12.3,12.3,0,1,1,316.914,216.5,12.221,12.221,0,0,1,329.488,228.514Z" transform="translate(309.385 189.339)"/><path class="i" d="M362.121,204.117a4.411,4.411,0,1,1-4.5-4.317A4.53,4.53,0,0,1,362.121,204.117Z" transform="translate(351.824 174.699)"/><path class="i" d="M392.687,225.51a6.2,6.2,0,1,1-6.381-6.006A6.123,6.123,0,0,1,392.687,225.51Z" transform="translate(375.497 191.967)"/><path class="i" d="M133.047,185.105a17.179,17.179,0,1,0-16.7,17.642A17.071,17.071,0,0,0,133.047,185.105Z" transform="translate(128.591 147.166)"/><path class="i" d="M155.614,215.523a7.51,7.51,0,1,1-15.014.375,7.534,7.534,0,0,1,7.319-7.695A7.3,7.3,0,0,1,155.614,215.523Z" transform="translate(165.33 182.06)"/><path class="i" d="M177.141,210.135a5.821,5.821,0,1,0-5.63,6.006A5.846,5.846,0,0,0,177.141,210.135Z" transform="translate(187.158 178.815)"/></g></g></g></g></svg>